<?xml version="1.0" encoding="iso-8859-1"?>
<!-- Generator: Adobe Illustrator 17.1.0, SVG Export Plug-In . SVG Version: 6.00 Build 0)  -->
<!DOCTYPE svg PUBLIC "-//W3C//DTD SVG 1.1//EN" "http://www.w3.org/Graphics/SVG/1.1/DTD/svg11.dtd">
<svg version="1.1" id="Layer_1" xmlns="http://www.w3.org/2000/svg" xmlns:xlink="http://www.w3.org/1999/xlink" x="0px" y="0px"
	 viewBox="0 0 493 428" style="enable-background:new 0 0 493 428;" xml:space="preserve">
<g>
	<circle style="fill:#010101;" cx="75.085" cy="92.023" r="28.702"/>
	<path style="fill:#010101;" d="M105.933,129.587h-61.69c-22.593,0-40.9,19.038-40.9,42.516v85.138c0,1.981,0.433,3.864,1.179,5.563
		c2.139,4.919,7.039,8.368,12.748,8.368c7.694,0,13.927-6.244,13.927-13.931v-1.243v-79.624h5.412v77.782v97.039v57.268
		c0,9.709,7.871,17.573,17.577,17.573c9.709,0,17.565-7.864,17.565-17.573v-71.67v-61.618h6.662v59.178v74.11
		c0,9.709,7.864,17.573,17.565,17.573c9.713,0,17.573-7.864,17.573-17.573v-97.935v-89.134v-45.021h5.42v56.078v24.789
		c0,7.683,6.229,13.931,13.923,13.931c7.69,0,13.935-6.244,13.935-13.931v-31.157v-53.98
		C146.837,148.625,128.526,129.587,105.933,129.587z"/>
</g>
<g>
	<circle style="fill:#010101;" cx="246.085" cy="92.023" r="28.702"/>
	<path style="fill:#010101;" d="M276.933,129.587h-61.69c-22.593,0-40.9,19.038-40.9,42.516v85.138c0,1.981,0.433,3.864,1.179,5.563
		c2.139,4.919,7.039,8.368,12.748,8.368c7.694,0,13.927-6.244,13.927-13.931v-1.243v-79.624h5.412v77.782v97.039v57.268
		c0,9.709,7.871,17.573,17.577,17.573c9.709,0,17.565-7.864,17.565-17.573v-71.67v-61.618h6.662v59.178v74.11
		c0,9.709,7.864,17.573,17.565,17.573c9.713,0,17.573-7.864,17.573-17.573v-97.935v-89.134v-45.021h5.419v56.078v24.789
		c0,7.683,6.229,13.931,13.923,13.931c7.69,0,13.935-6.244,13.935-13.931v-31.157v-53.98
		C317.837,148.625,299.526,129.587,276.933,129.587z"/>
</g>
<g>
	<circle style="fill:#010101;" cx="418.085" cy="92.023" r="28.702"/>
	<path style="fill:#010101;" d="M448.933,129.587h-61.69c-22.593,0-40.9,19.038-40.9,42.516v85.138c0,1.981,0.433,3.864,1.179,5.563
		c2.139,4.919,7.039,8.368,12.748,8.368c7.694,0,13.927-6.244,13.927-13.931v-1.243v-79.624h5.412v77.782v97.039v57.268
		c0,9.709,7.871,17.573,17.577,17.573c9.709,0,17.565-7.864,17.565-17.573v-71.67v-61.618h6.662v59.178v74.11
		c0,9.709,7.864,17.573,17.565,17.573c9.713,0,17.573-7.864,17.573-17.573v-97.935v-89.134v-45.021h5.419v56.078v24.789
		c0,7.683,6.229,13.931,13.923,13.931c7.69,0,13.935-6.244,13.935-13.931v-31.157v-53.98
		C489.837,148.625,471.526,129.587,448.933,129.587z"/>
</g>
<circle style="fill:#010101;" cx="271.067" cy="21.925" r="18.828"/>
<circle style="fill:#010101;" cx="382.965" cy="21.925" r="18.828"/>
<circle style="fill:#010101;" cx="327.016" cy="21.925" r="18.828"/>
<circle style="fill:#010101;" cx="215.118" cy="21.925" r="18.828"/>
<circle style="fill:#010101;" cx="103.219" cy="21.925" r="18.828"/>
<circle style="fill:#010101;" cx="159.169" cy="21.925" r="18.828"/>
<circle style="fill:#010101;" cx="161.254" cy="89.925" r="27.828"/>
<circle style="fill:#010101;" cx="330.254" cy="90.925" r="27.828"/>
</svg>
