<?xml version="1.0" encoding="utf-8"?>
<!-- Generator: Adobe Illustrator 17.1.0, SVG Export Plug-In . SVG Version: 6.00 Build 0)  -->
<!DOCTYPE svg PUBLIC "-//W3C//DTD SVG 1.1//EN" "http://www.w3.org/Graphics/SVG/1.1/DTD/svg11.dtd">
<svg version="1.1" id="Layer_1" xmlns="http://www.w3.org/2000/svg" xmlns:xlink="http://www.w3.org/1999/xlink" x="0px" y="0px"
	 viewBox="0 0 612 792" enable-background="new 0 0 612 792" xml:space="preserve">
<circle fill="#FFFFFF" cx="139.9" cy="515.2" r="39.1"/>
<circle fill="#FFFFFF" cx="232.4" cy="515.2" r="39.1"/>
<circle fill="#FFFFFF" cx="47.3" cy="515.2" r="39.1"/>
<circle fill="#FFFFFF" cx="380.5" cy="515.2" r="39.1"/>
<circle fill="#FFFFFF" cx="473" cy="515.2" r="39.1"/>
<circle fill="#FFFFFF" cx="565.6" cy="515.2" r="39.1"/>
<circle fill="#FFFFFF" cx="159.3" cy="419.9" r="33.1"/>
<circle fill="#FFFFFF" cx="237.6" cy="419.9" r="33.1"/>
<circle fill="#FFFFFF" cx="81" cy="419.9" r="33.1"/>
<circle fill="#FFFFFF" cx="375.3" cy="419.9" r="33.1"/>
<circle fill="#FFFFFF" cx="453.6" cy="419.9" r="33.1"/>
<circle fill="#FFFFFF" cx="531.9" cy="419.9" r="33.1"/>
<circle fill="#FFFFFF" cx="178.7" cy="327.7" r="28.4"/>
<circle fill="#FFFFFF" cx="245.9" cy="327.7" r="28.4"/>
<circle fill="#FFFFFF" cx="111.4" cy="327.7" r="28.4"/>
<circle fill="#FFFFFF" cx="367" cy="327.7" r="28.4"/>
<g>
	<circle fill="#FFFFFF" cx="275.1" cy="215.3" r="28.4"/>
	<circle fill="#FFFFFF" cx="342.3" cy="215.3" r="28.4"/>
</g>
<circle fill="#FFFFFF" cx="434.2" cy="327.7" r="28.4"/>
<circle fill="#FFFFFF" cx="501.5" cy="327.7" r="28.4"/>
</svg>
