<?xml version="1.0" encoding="utf-8"?>
<!-- Generator: Adobe Illustrator 17.1.0, SVG Export Plug-In . SVG Version: 6.00 Build 0)  -->
<!DOCTYPE svg PUBLIC "-//W3C//DTD SVG 1.1//EN" "http://www.w3.org/Graphics/SVG/1.1/DTD/svg11.dtd">
<svg version="1.1" id="Layer_1" xmlns="http://www.w3.org/2000/svg" xmlns:xlink="http://www.w3.org/1999/xlink" x="0px" y="0px"
	 viewBox="0 0 181.8 182.6" style="enable-background:new 0 0 181.8 182.6;" xml:space="preserve">
<path d="M30.1,122.9h1.6c0.4,0,0.8,0.1,1,0.4c0.2,0.2,0.3,0.5,0.3,0.8v0c0,0.6-0.3,0.9-0.8,1.1l1,1.3h-0.7l-0.9-1.2h-0.8v1.2h-0.6
	V122.9z M31.7,124.6c0.4,0,0.7-0.2,0.7-0.6v0c0-0.4-0.3-0.6-0.7-0.6h-0.9v1.2H31.7z M34.8,122.9h2.6v0.6h-2v0.9h1.8v0.6h-1.8v0.9h2
	v0.6h-2.6V122.9z M38.9,125.9l0.4-0.4c0.3,0.3,0.7,0.5,1.1,0.5c0.4,0,0.6-0.2,0.6-0.4v0c0-0.3-0.1-0.4-0.8-0.5
	c-0.8-0.2-1.2-0.4-1.2-1.1v0c0-0.6,0.5-1,1.2-1c0.5,0,0.9,0.2,1.3,0.4l-0.3,0.5c-0.3-0.2-0.6-0.4-1-0.4c-0.4,0-0.6,0.2-0.6,0.4v0
	c0,0.3,0.2,0.4,0.8,0.6c0.7,0.2,1.1,0.4,1.1,1v0c0,0.7-0.5,1.1-1.3,1.1C39.9,126.5,39.4,126.3,38.9,125.9z M44.2,123.5h-1.1v-0.6
	h2.9v0.6h-1.1v2.9h-0.6V123.5z M48.4,122.9h0.6l1.5,3.5h-0.7l-0.4-0.8h-1.7l-0.4,0.8h-0.6L48.4,122.9z M49.3,125l-0.6-1.4L48,125
	H49.3z M51.9,124.9v-2h0.6v2c0,0.7,0.3,1,0.9,1c0.5,0,0.9-0.3,0.9-1v-2h0.6v2c0,1.1-0.6,1.6-1.5,1.6
	C52.5,126.5,51.9,125.9,51.9,124.9z M56.8,122.9h1.6c0.4,0,0.8,0.1,1,0.4c0.2,0.2,0.3,0.5,0.3,0.8v0c0,0.6-0.3,0.9-0.8,1.1l1,1.3
	h-0.7l-0.9-1.2h-0.8v1.2h-0.6V122.9z M58.3,124.6c0.4,0,0.7-0.2,0.7-0.6v0c0-0.4-0.3-0.6-0.7-0.6h-0.9v1.2H58.3z M62.7,122.9h0.6
	l1.5,3.5h-0.7l-0.4-0.8h-1.7l-0.4,0.8h-0.6L62.7,122.9z M63.6,125l-0.6-1.4l-0.6,1.4H63.6z M66.4,122.9H67l1.9,2.4v-2.4h0.6v3.5H69
	l-1.9-2.5v2.5h-0.6V122.9z M72.3,123.5h-1.1v-0.6H74v0.6h-1.1v2.9h-0.6V123.5z M80.1,126c-0.3,0.3-0.7,0.5-1.1,0.5
	c-0.7,0-1.2-0.4-1.2-1v0c0-0.5,0.3-0.8,0.7-1c-0.2-0.3-0.3-0.5-0.3-0.7v0c0-0.5,0.4-0.9,1-0.9c0.6,0,0.9,0.4,0.9,0.8v0
	c0,0.5-0.3,0.7-0.8,0.9l0.6,0.6c0.1-0.2,0.3-0.4,0.4-0.7l0.5,0.2c-0.1,0.3-0.3,0.6-0.5,0.8l0.6,0.6l-0.5,0.3L80.1,126z M79.8,125.6
	l-0.8-0.8c-0.3,0.1-0.5,0.4-0.5,0.6v0c0,0.3,0.2,0.5,0.6,0.5C79.4,125.9,79.6,125.8,79.8,125.6z M79.8,123.7L79.8,123.7
	c0-0.2-0.2-0.4-0.4-0.4c-0.3,0-0.4,0.2-0.4,0.4v0c0,0.2,0.1,0.3,0.3,0.5C79.6,124.1,79.8,124,79.8,123.7z M85.2,122.9h1.6
	c0.4,0,0.7,0.1,0.9,0.3c0.2,0.2,0.2,0.3,0.2,0.6v0c0,0.4-0.2,0.6-0.5,0.8c0.4,0.1,0.7,0.4,0.7,0.9v0c0,0.6-0.5,1-1.3,1h-1.6V122.9z
	 M87.3,123.9c0-0.3-0.2-0.4-0.6-0.4h-0.9v0.9h0.8C87,124.4,87.3,124.2,87.3,123.9L87.3,123.9z M86.8,124.9h-1v1h1
	c0.4,0,0.7-0.2,0.7-0.5v0C87.5,125.1,87.3,124.9,86.8,124.9z M91.1,122.9h0.6l1.6,3.5h-0.7l-0.4-0.8h-1.7l-0.4,0.8h-0.6L91.1,122.9z
	 M92,125l-0.6-1.4l-0.6,1.4H92z M94.8,122.9h1.6c0.4,0,0.8,0.1,1,0.4c0.2,0.2,0.3,0.5,0.3,0.8v0c0,0.6-0.3,0.9-0.8,1.1l1,1.3h-0.7
	l-0.9-1.2h-0.8v1.2h-0.6V122.9z M96.3,124.6c0.4,0,0.7-0.2,0.7-0.6v0c0-0.4-0.3-0.6-0.7-0.6h-0.9v1.2H96.3z M49.5,53.6v55
	c0,0.8,0.3,1.5,0.9,1.9c0.9,0.6,1.9,0.9,3.1,0.9h8.6v3.3H30.3v-3.3h7.3c1.5,0,2.7-0.4,3.4-1.1c0.7-0.7,1.1-1.7,1.1-2.9V65.9
	c0-0.9-0.3-1.6-1-2.2c-0.7-0.6-1.5-0.9-2.6-0.9h-9.8v-3c4.6-0.6,8.3-1.4,11.2-2.4c2.9-1,5.4-2.3,7.6-3.9H49.5z M85.1,53.6v55
	c0,0.8,0.3,1.5,0.9,1.9c0.9,0.6,1.9,0.9,3.1,0.9h8.6v3.3H65.9v-3.3h7.3c1.5,0,2.7-0.4,3.4-1.1c0.7-0.7,1.1-1.7,1.1-2.9V65.9
	c0-0.9-0.3-1.6-1-2.2c-0.7-0.6-1.5-0.9-2.6-0.9h-9.8v-3c4.6-0.6,8.3-1.4,11.2-2.4c2.9-1,5.4-2.3,7.6-3.9H85.1z M134.8,89.1
	c5.5,1.3,9.7,3.5,12.8,6.6c3.9,3.9,5.8,8.8,5.8,14.6c0,6.6-2.3,11.8-7,15.8c-5.3,4.6-12.2,6.9-20.7,6.9c-5.1,0-9.5-0.8-13.2-2.5
	c-3.7-1.7-6.4-3.9-8.3-6.8c-1.8-2.9-2.7-6.1-2.7-9.7c0-2.9,0.7-5.2,2.1-6.9c1.4-1.7,3.2-2.5,5.3-2.5c1.9,0,3.5,0.6,4.7,1.9
	c1.2,1.3,1.8,3,1.8,5.2c0,1.4-0.3,2.6-0.9,3.6c-0.6,1-1.7,1.9-3.2,2.7c-1.6,0.9-2.5,1.7-2.5,2.5c0,1.1,0.6,2.4,1.7,3.9
	c1.2,1.4,2.9,2.6,5.1,3.4c2.3,0.9,5.1,1.3,8.6,1.3c6,0,10.4-1.5,13.3-4.4c2.9-3,4.3-7.7,4.3-14.2c0-6.8-1.2-11.7-3.7-14.6
	c-2.5-2.9-6.1-4.3-11-4.3c-1.3,0-2.9,0.2-4.9,0.5c-1.6,0.2-2.7,0.3-3.4,0.3c-1.1,0-2-0.2-2.7-0.7c-0.6-0.5-0.9-1.1-0.9-1.8
	c0-0.8,0.3-1.4,0.9-1.9c0.6-0.4,1.6-0.7,2.9-0.7l3.1,0.1l2.7,0.1c4.8,0,8.5-1.2,10.9-3.7c2.4-2.5,3.7-6.3,3.7-11.5
	c0-6.4-1.2-10.9-3.5-13.6c-2.3-2.7-5.8-4-10.4-4c-4.2,0-7.6,0.8-10.1,2.3c-2.5,1.5-3.8,2.9-3.8,4.2c0,0.8,0.7,2,2.2,3.4
	c2.1,1.9,3.1,3.9,3.1,5.9c0,1.6-0.6,2.9-1.7,3.9c-1.1,1.1-2.6,1.6-4.4,1.6c-1.9,0-3.5-0.7-4.7-2.2c-1.2-1.4-1.8-3.5-1.8-6.1
	c0-4,1.4-7.6,4.3-10.8c4.1-4.4,10-6.6,17.7-6.6c7.2,0,12.9,1.9,17.2,5.8c4.3,3.9,6.4,8.6,6.4,14.3c0,4.1-1.2,7.6-3.5,10.6
	C144.4,84.2,140.4,86.8,134.8,89.1z M91.1,2.2C41.6,2.2,1.5,42.3,1.5,91.8c0,49.4,40.1,89.5,89.5,89.5c49.4,0,89.5-40.1,89.5-89.5
	C180.6,42.3,140.5,2.2,91.1,2.2z"/>
</svg>
