<svg xmlns="http://www.w3.org/2000/svg" id="Layer_1" viewBox="0 0 225.6 162.1"><style>.st0{fill:#AC162C;}</style><path d="M199.6 129.5c-.2-.3-.5-.4-.8-.4-.3 0-.6.2-.8.4-.4.5-.3 1.9-.3 2.4s-.1 1.9.3 2.5c.2.3.5.4.8.4.3 0 .7-.2.8-.4.4-.6.3-2 .3-2.5.1-.5.1-1.8-.3-2.4zM187.9 129.5c-.2-.3-.5-.4-.8-.4-.3 0-.6.2-.8.4-.4.5-.3 1.9-.3 2.4s-.1 1.9.3 2.5c.2.3.5.4.8.4.3 0 .7-.2.8-.4.4-.6.3-2 .3-2.5s0-1.8-.3-2.4z"/><path d="M161.7 82.6v79.5h63.8V82.6h-63.8zm16.3 62.1h-3.5v-14.4l-2.8 2v-3.9l2.8-2.2h3.5v18.5zm4.1-44.5h8.5v3.3h-4.8v4.2h4.2v3.3h-4.2v4.3h4.8v3.3h-8.5v-18.4zm8.8 35.7l-3.4 8.8h-3.6l3.1-7.2c-.3.2-.7.2-.9.2-1 0-2-.4-2.7-1.3-.7-.9-1-2-1-4.5 0-2.3.3-3.3.9-4.2.8-1.2 2.2-1.7 3.8-1.7 1.7 0 3 .6 3.7 1.7.7 1.1.9 2.2.9 4.2 0 1.4-.4 2.9-.8 4zm11.8 0l-3.4 8.8h-3.6l3.1-7.2c-.3.2-.7.2-.9.2-1 0-2-.4-2.7-1.3-.7-.9-1-2-1-4.5 0-2.3.3-3.3.9-4.2.8-1.2 2.2-1.7 3.8-1.7 1.7 0 3 .6 3.7 1.7.7 1.1.9 2.2.9 4.2-.1 1.4-.4 2.9-.8 4zm-.4-18.4c-.8.8-2.2 1.4-4 1.4-1.8 0-3.2-.5-4-1.4-.9-.9-1.2-2.2-1.2-4.1h3.7c0 .8.1 1.3.4 1.7.2.2.6.4 1.1.4.6 0 .9-.2 1.2-.5.3-.3.4-.8.4-1.6 0-1.8-.3-2.1-1.6-2.6l-2.3-1c-1.9-.8-2.7-1.8-2.7-4.7 0-1.7.5-3.1 1.7-4.1.9-.8 2-1.2 3.4-1.2 1.6 0 2.8.4 3.6 1.2 1 .9 1.4 2.4 1.4 4.3h-3.7c0-.6 0-1.2-.3-1.7-.2-.3-.5-.5-1.1-.5-.5 0-.9.2-1.1.5-.2.3-.3.7-.3 1.3 0 1.2.2 1.5 1.3 2l2.3.9c2.3.9 3 2 3 5.4 0 2.1-.2 3.4-1.2 4.3zm11 27.2h-3.5v-14.4l-2.8 2v-3.9l2.8-2.2h3.5v18.5zm2.3-41.2h-3.1v15.2h-3.7v-15.2h-3.1v-3.3h9.9v3.3z"/><g><path d="M50.5 107.8c-1 0-1.6-.4-2-1.2-.9-1.8-.9-7.8-.9-10.7 0-2.9 0-8.8.9-10.7.4-.8 1-1.2 2-1.2s1.7.4 2.1 1.2c.9 1.8.9 7.8.9 10.7 0 2.9 0 8.8-.9 10.7-.3.8-1 1.2-2.1 1.2z" class="st0"/><path d="M50.5 84.6c.8 0 1.4.3 1.7.9.9 1.7.9 7.6.9 10.4 0 2.8 0 8.7-.9 10.4-.3.6-.8.9-1.7.9-.9 0-1.3-.3-1.6-.9-.9-1.7-.9-7.6-.9-10.4 0-2.8 0-8.7.9-10.4.4-.6.7-.9 1.6-.9m0-1c-1.4 0-2 .6-2.5 1.5-.9 1.7-1 6.4-1 10.9s.1 9.2 1 10.9c.4.8 1.1 1.5 2.5 1.5s2.1-.6 2.6-1.5c.9-1.7 1-6.4 1-10.9s-.1-9.2-1-10.9c-.4-.9-1.2-1.5-2.6-1.5zM173.1 53c-1 0-1.6-.4-2-1.2-.9-1.8-.9-7.8-.9-10.7 0-2.9 0-8.8.9-10.7.4-.8 1-1.2 2-1.2s1.7.4 2.1 1.2c.9 1.8.9 7.8.9 10.7 0 2.9 0 8.8-.9 10.7-.4.8-1.1 1.2-2.1 1.2z" class="st0"/><path d="M173.1 29.8c.8 0 1.4.3 1.7.9.9 1.7.9 7.6.9 10.4 0 2.8 0 8.7-.9 10.4-.3.6-.8.9-1.7.9-.9 0-1.3-.3-1.6-.9-.9-1.7-.9-7.6-.9-10.4 0-2.8 0-8.7.9-10.4.3-.5.7-.9 1.6-.9m0-1c-1.4 0-2 .6-2.5 1.5-.9 1.7-1 6.4-1 10.9s.1 9.2 1 10.9c.4.8 1.1 1.5 2.5 1.5s2.1-.6 2.6-1.5c.9-1.7 1-6.4 1-10.9s-.1-9.2-1-10.9c-.4-.9-1.2-1.5-2.6-1.5zM74.8 46.8l2.3-10.9 2.3 10.9zM77.1 38.4l1.7 7.9h-3.3l1.6-7.9m0-4.9l-2.9 13.8H80l-2.9-13.8z" class="st0"/><g><path d="M102.3 38.1v-8.4h2.6c2.1 0 2.5 1.5 2.5 4.2s-.4 4.2-2.5 4.2h-2.6z" class="st0"/><path d="M105 30.2c1.5 0 2 .9 2 3.7 0 2.8-.5 3.7-2 3.7h-2.1v-7.4h2.1m0-1h-3.1v9.4h3.1c2.8 0 3-2.6 3-4.7 0-2.2-.2-4.7-3-4.7z" class="st0"/></g><g><path d="M.3 161.4V.8h224.5v76.1h-70v84.5H.3zm92-57.4c0 4.3.8 6.9 2.7 8.8 1.9 1.9 4.9 2.9 8.6 2.9 3.5 0 6.7-1.1 8.6-3 2.2-2.1 2.6-5 2.6-8.8 0-6.9-1.4-9.4-6.5-11.5l-4.7-1.9c-1.9-.8-2.1-1.2-2.1-3.3 0-1.1.1-1.8.5-2.2.4-.5.9-.7 1.6-.7 1 0 1.3.3 1.6.7.5.7.5 1.7.5 2.9v.7h8.9V88c0-4.2-1-7.2-3.1-9.2-1.8-1.7-4.4-2.5-7.8-2.5-2.9 0-5.4.9-7.3 2.5-2.4 2-3.6 5.1-3.6 8.8 0 5.7 1.5 8.2 5.8 10l4.7 1.9c2.4 1 2.8 1.4 2.8 4.6 0 1.4-.2 2.2-.6 2.7-.3.3-.7.7-1.8.7-1 0-1.5-.4-1.8-.7-.5-.6-.6-1.5-.6-2.9v-.7h-8.9v.8zm-26.2.6c0 3.1 1 5.8 3 7.8 2.1 2.2 4.9 3.3 8.3 3.3s6.1-1.1 8.3-3.3c1.9-2 3-4.7 3-7.8v-28h-8.9V105c0 2.2-1.3 2.6-2.4 2.6s-2.4-.5-2.4-2.6V76.6h-8.9v28zM50.5 76.2c-4.7 0-7 2-8.7 4-3 3.5-3 9.8-2.9 14.9V97c0 5 0 11.3 2.9 14.9 1.7 2 4 4 8.7 4 4.8 0 7.2-2.1 8.8-4 3-3.5 3-9.8 2.9-14.9v-2c0-5 0-11.3-2.9-14.9-1.6-1.8-4-3.9-8.8-3.9zm68.3 39.1h18.6v-8.1h-9.7v-7.3h8.4v-8.1h-8.4v-7h9.7v-8.1h-18.6v38.6zm-92.8 0h8.9V76.6H26v15h-4.8v-15h-8.9v38.7h8.9V99.7H26v15.6zm147.1-93.9c-4.7 0-7 2-8.7 4-3 3.5-3 9.8-2.9 14.9v1.9c0 5 0 11.3 2.9 14.9 1.7 2 4 4 8.7 4 4.8 0 7.2-2.1 8.8-4 3-3.5 3-9.8 2.9-14.9v-1.9c0-5 0-11.3-2.9-14.9-1.6-1.9-4-4-8.8-4zm-150.2 0c-4.7 0-7 2-8.7 4-3 3.5-3 9.9-2.9 14.9v1.9c0 5 0 11.3 2.9 14.8 1.7 2 4 4 8.7 4 3.2 0 5.6-.9 7.7-2.9 2.1-2 3.4-5.2 3.6-8.9v-.7h-8.9v.7c0 .9-.1 1.9-.5 2.6-.2.5-.7 1.1-1.9 1.1-.9 0-1.4-.3-1.8-1.1-.9-1.8-.9-7.7-.9-10.6s0-8.8.9-10.6c.4-.8.9-1.1 1.8-1.1 1.2 0 1.6.5 1.9 1 .4.7.5 1.7.5 2.6v.7h8.9v-.7c-.2-3.7-1.4-6.8-3.5-8.8-2.2-2-4.6-2.9-7.8-2.9zm181.6 39.1h7.5V21.8h-8.9v15.5l-6.6-15.5h-7.7v38.7h8.9V45l6.8 15.5zm-59.6 0h8.9V29.9h6.3v-8.1h-21.4v8.1h6.3v30.6zm-24 0h18.6v-8.1h-9.7V21.8h-8.9v38.7zm-12.6 0h9.3L112 44c3.6-2.5 4.1-6.3 4.1-10.1 0-8.5-3.3-12.1-11.1-12.1H93.7v38.7h8.9V46h1.2l4.5 14.5zm-26.3 0h9.2l-10-38.7h-8.4l-10 38.7H72l1.2-5.8h7.4l1.4 5.8zm-30.3 0h8.9V21.8h-8.9v15h-4.8v-15H38v38.7h8.9V44.9h4.8v15.6z" class="st0"/><path d="M224.1 1.6v74.6h-70v84.5H1V1.6h223.1m-51 60.1c5.1 0 7.6-2.3 9.3-4.2 3.1-3.7 3.1-10.2 3.1-15.3v-1.8c0-5.2 0-11.6-3.1-15.3-1.7-2-4.2-4.2-9.3-4.2-5 0-7.5 2.3-9.2 4.2-3.1 3.7-3.1 10.2-3.1 15.3v1.8c0 5.2 0 11.6 3.1 15.3 1.7 1.9 4.2 4.2 9.2 4.2m-150.2 0c3.4 0 6-1 8.2-3.1 2.3-2.2 3.6-5.5 3.8-9.3l.1-1.5H24.7l-.1 1.3c0 .8-.1 1.7-.4 2.3-.1.3-.4.7-1.3.7-.7 0-1-.2-1.2-.7-.8-1.6-.8-7.7-.8-10.2 0-2.6 0-8.6.8-10.3.2-.5.5-.7 1.2-.7.9 0 1.1.3 1.2.6.3.5.4 1.5.4 2.3l.1 1.3h10.3l-.1-1.4c-.2-3.9-1.5-7.2-3.7-9.3-2.2-2.1-4.8-3.1-8.2-3.1-5 0-7.5 2.3-9.2 4.2-3.1 3.7-3.1 10.2-3.1 15.4V42c0 5.1 0 11.5 3.1 15.3 1.6 2.1 4.2 4.4 9.2 4.4m179.5-27.9l-5-11.8-.4-.9h-8.8V61.2H198.4V48.4l5.2 12 .4.9h8.6V21.1H202.4V33.8m-64.5-3.2H144.2V61.2H154.4V30.6H160.7v-9.5H137.9v9.5m-17.7 30.6H140.2v-9.5H130.5V21.1H120.3V61.2m-27.3 0H103.2V46.7l4.2 13.5.3 1h10.8l-.6-1.9-5.1-15.1c3.5-2.7 4-6.7 4-10.3 0-6-1.3-12.8-11.8-12.8H93V61.2m-31 0H72.8l.2-1.1 1-4.7h6.3l1 4.7.2 1.1h10.8l-.5-1.8-9.6-37.3-.3-1.1h-9.5l-.3 1.1-9.6 37.3-.5 1.8M51 36.1h-3.3v-15H37.5V61.2H47.7V45.6H51v15.6H61.2V21.1H51v15m-.5 80.3c5.1 0 7.6-2.3 9.3-4.2C63 108.5 63 102 63 96.9v-1.8c0-5.2 0-11.6-3.1-15.3-1.7-2-4.2-4.2-9.3-4.2-5 0-7.5 2.3-9.2 4.2-3.1 3.7-3.1 10.2-3.1 15.3v1.8c0 5.2 0 11.6 3.1 15.3 1.6 2 4.2 4.2 9.1 4.2m53-9.5c-.6 0-1-.1-1.2-.4-.4-.4-.4-1.3-.4-2.5v-1.4H91.6v1.4c0 4.5.9 7.3 2.9 9.3 2.1 2.1 5.2 3.1 9.1 3.1 3.7 0 7-1.2 9.1-3.2 2.4-2.3 2.8-5.4 2.8-9.3 0-7.2-1.6-9.9-7-12.1l-4.7-1.9c-1.6-.7-1.7-.8-1.7-2.6 0-1.2.2-1.6.4-1.8.1-.2.4-.4 1-.4.7 0 .9.2 1 .4.3.5.3 1.5.3 2.5v1.4H115V88c0-4.4-1.1-7.6-3.3-9.7-1.9-1.8-4.7-2.7-8.3-2.7-3.1 0-5.7.9-7.8 2.7-2.5 2.2-3.8 5.4-3.8 9.4 0 6 1.6 8.8 6.2 10.7l4.7 1.9c2.1.9 2.4 1 2.4 4 0 1.2-.1 1.9-.4 2.2-.1.1-.3.4-1.2.4m14.6 9.1H138.1v-9.5H128.4v-5.9h8.4V91h-8.4v-5.6H138.1v-9.5H118.1V116m-40.8-9.1c-1.2 0-1.7-.6-1.7-1.9V75.9H65.4v28.7c0 3.3 1.1 6.2 3.2 8.3 2.3 2.3 5.2 3.5 8.8 3.5 3.5 0 6.5-1.2 8.8-3.5 2.1-2.1 3.2-5 3.2-8.3V75.9H79V105c0 1.3-.5 1.9-1.7 1.9m-52-16.1H22V75.9H11.8V116H22v-15.6h3.3V116H35.5V75.9H25.3v14.9M225.5.1H-.4v162h155.9V77.6h70V.1zm-52.4 60.1c-4.2 0-6.4-1.7-8.1-3.7-3-3.6-2.8-10.3-2.8-15.3s-.2-11.8 2.8-15.4c1.7-2 3.9-3.7 8.1-3.7 4.2 0 6.5 1.7 8.2 3.7 3 3.6 2.8 10.3 2.8 15.4 0 5 .2 11.8-2.8 15.3-1.7 2.1-4 3.7-8.2 3.7zm-150.2 0c-4.2 0-6.4-1.7-8.1-3.7-3-3.5-2.8-10.2-2.8-15.3 0-5-.2-11.8 2.8-15.4 1.7-2 3.9-3.7 8.1-3.7 3.1 0 5.3.9 7.2 2.7 1.9 1.8 3.1 4.8 3.3 8.3H26c-.1-1-.2-2.1-.6-2.9-.4-.9-1.2-1.4-2.5-1.4-1.4 0-2 .6-2.5 1.5-.9 1.7-1 6.4-1 10.9s.1 9.2 1 10.9c.4.8 1.1 1.5 2.5 1.5s2.1-.6 2.6-1.5c.4-.8.5-1.8.6-2.9h7.4c-.2 3.6-1.4 6.5-3.4 8.4-1.9 1.8-4.1 2.6-7.2 2.6zm181-19.4V22.5h7.4v37.3H205l-8-18.2v18.2h-7.4V22.5h6.5l7.8 18.3zm-64.6-11.6v-6.7h20v6.7H153v30.6h-7.4V29.2h-6.3zm-17.7 30.6V22.5h7.4v30.6h9.7v6.7h-17.1zm-27.2 0V22.5H105c8.1 0 10.4 4.2 10.4 11.4 0 4-.6 7.5-4.2 9.8l5.4 16.1h-7.8l-4.6-14.5h-2.5v14.5h-7.3zm-30.6 0l9.6-37.3h7.3l9.6 37.3h-7.8L81.4 54h-8.6l-1.2 5.8h-7.8zM46.2 37.5h6.2v-15h7.4v37.3h-7.4V44.2h-6.2v15.6h-7.4V22.5h7.4v15zm4.3 77.5c-4.2 0-6.4-1.7-8.1-3.7-3-3.6-2.8-10.3-2.8-15.3s-.2-11.8 2.8-15.4c1.7-2 3.9-3.7 8.1-3.7 4.2 0 6.5 1.7 8.2 3.7 3 3.6 2.8 10.3 2.8 15.4 0 5 .2 11.8-2.8 15.3-1.7 2-4 3.7-8.2 3.7zm53-6.7c1.2 0 1.9-.3 2.4-.9.5-.6.7-1.6.7-3.1 0-3.6-.6-4.2-3.2-5.3l-4.8-2c-3.8-1.6-5.3-3.6-5.3-9.4 0-3.5 1.1-6.3 3.4-8.3 1.8-1.5 4-2.4 6.9-2.4 3.3 0 5.7.8 7.3 2.4 2 1.9 2.9 4.9 2.9 8.6h-7.4c0-1.3 0-2.5-.6-3.4-.4-.6-1-.9-2.1-.9-1 0-1.7.4-2.1 1-.5.6-.6 1.4-.6 2.7 0 2.4.4 3 2.6 3.9l4.7 1.9c4.7 1.9 6.1 4 6.1 10.8 0 3.8-.5 6.4-2.4 8.3-1.7 1.6-4.5 2.8-8.1 2.8-3.7 0-6.4-1-8.1-2.7-1.8-1.8-2.5-4.5-2.5-8.3h7.4c0 1.5.1 2.6.8 3.4.1.5.8.9 2 .9zm16 6.3V77.3h17.2V84H127v8.4h8.4v6.7H127v8.7h9.7v6.7h-17.2v.1zm-42.2-6.3c1.7 0 3.1-.9 3.1-3.4V77.3h7.4v27.3c0 3-1 5.5-2.8 7.3-2 2-4.6 3.1-7.8 3.1-3.1 0-5.8-1-7.8-3.1-1.8-1.8-2.8-4.3-2.8-7.3V77.3H74V105c.2 2.4 1.6 3.3 3.3 3.3zm-56.8-16h6.2v-15h7.4v37.3h-7.4V99h-6.2v15.6h-7.4V77.3h7.4v15z" class="st0"/></g></g></svg>