<?xml version="1.0" encoding="iso-8859-1"?>
<!-- Generator: Adobe Illustrator 17.1.0, SVG Export Plug-In . SVG Version: 6.00 Build 0)  -->
<!DOCTYPE svg PUBLIC "-//W3C//DTD SVG 1.1//EN" "http://www.w3.org/Graphics/SVG/1.1/DTD/svg11.dtd">
<svg version="1.1" id="Layer_1" xmlns="http://www.w3.org/2000/svg" xmlns:xlink="http://www.w3.org/1999/xlink" x="0px" y="0px"
	 viewBox="0 0 246.35 85.04" style="enable-background:new 0 0 246.35 85.04;" xml:space="preserve">
<style type="text/css">
	.Arched_x0020_Green{fill:url(#SVGID_1_);stroke:#FFFFFF;stroke-width:0.25;stroke-miterlimit:1;}
	.st0{fill:#FFFFFF;}
	.st1{fill:#0099D8;}
</style>
<linearGradient id="SVGID_1_" gradientUnits="userSpaceOnUse" x1="-297.6953" y1="339.9844" x2="-296.9882" y2="339.2773">
	<stop  offset="0" style="stop-color:#20AC4B"/>
	<stop  offset="0.9831" style="stop-color:#19361A"/>
</linearGradient>
<g>
	<circle class="st0" cx="42.28" cy="42.62" r="38.1"/>
	<path class="st1" d="M41.4,0C18.44,0.59,0,19.41,0,42.52c0,23.11,18.44,41.93,41.4,42.52h204.95V0H41.4z M21.64,70.47
		c-0.64-0.48-1.26-0.99-1.87-1.52v-5.7h1.87V70.47z M21.85,58.22h-1.06v-5.53h1.06V58.22z M26.57,73.54
		c-0.66-0.34-1.32-0.7-1.95-1.08v-9.21h1.95V73.54z M24.28,58.22v-5.53h1.56v5.53H24.28z M32.1,75.82c-0.86-0.27-1.7-0.58-2.52-0.91
		V63.25h2.52V75.82z M28.79,58.22v-5.53h1.77v5.53H28.79z M35.71,58.22h-1.77v-5.53h1.77V58.22z M42.16,77.39
		c-0.85-0.01-1.69-0.05-2.52-0.12V63.25h2.52C42.16,63.25,42.16,75.55,42.16,77.39z M39.13,58.22v-5.53h1.77v5.53H39.13z
		 M47.1,77.09c-0.64,0.09-1.29,0.15-1.94,0.2V63.25h1.94V77.09z M47.04,59.7c-1.96,0-3.55-2.08-3.55-4.64
		c0-2.56,1.59-4.64,3.55-4.64c1.96,0,3.54,2.08,3.54,4.64C50.58,57.63,49,59.7,47.04,59.7z M52.04,76.07
		c-0.64,0.18-1.29,0.35-1.94,0.49V63.25h1.94V76.07z M65.52,55.84c-1.47,0-2.66-1.56-2.66-3.48c0-1.92,1.19-3.48,2.66-3.48
		c1.46,0,2.65,1.55,2.65,3.48C68.18,54.28,66.99,55.84,65.52,55.84z M68.79,65.46c-0.43,0.49-0.95,1.05-1.4,1.52v-8.46h1.4V65.46z
		 M71.56,61.84v-3.32h0.5v-1.74H71.9c0.18-0.02,0.32-0.17,0.32-0.36c0-0.2-0.16-0.36-0.36-0.36h-1.87v-5.38H69.7v-1.41h-0.26
		c-0.64-4.98-4.06-9.5-8.64-11.14c0.01-0.04,0.02-0.08,0.02-0.12c0-0.2-0.16-0.36-0.37-0.36h-0.57l0-6.38h0.06
		c0.2,0,0.36-0.16,0.36-0.36c0-0.2-0.16-0.37-0.36-0.37h-0.06H58.9v-1.04h-0.28c-0.1-0.02-0.25-0.08-0.3-0.22
		c-0.08-0.25-0.11-0.19-0.29-0.33c-0.18-0.14-0.18-0.2,0.06-0.34c0.28-0.18,0.42-0.23,0.42-0.41c0-0.11-0.07-0.19-0.14-0.27
		c-0.1-0.19-0.11-0.36-0.11-0.42c0-0.25-0.2-0.35-0.47-0.5c-0.1-0.05-0.15-0.15-0.15-0.23c0-0.02,0-0.09,0.01-0.11
		c0.09-0.06,0.12-0.12,0.12-0.21c0-0.15-0.13-0.3-0.34-0.37c-0.01-0.02-0.01-0.03-0.02-0.06c-0.05-0.18-0.08-0.25,0.07-0.43
		c0.08-0.1,0.26-0.16,0.29-0.55c0.02-0.33-0.09-0.44-0.22-0.57l-0.06-1.69h0.24c0,0,0.24,0,0.36-0.19c0.07-0.11,0.06-0.22,0.31-0.29
		c0.25-0.06,0.67-0.01,0.67-0.01s0,0.48,0.02,0.59c0.02,0.12,0.21-0.02,0.33-0.13c0.19-0.17,0.86-0.81,0.86-0.81
		s-0.68-0.7-0.82-0.82c-0.12-0.11-0.3-0.25-0.33-0.13c-0.03,0.12-0.03,0.59-0.03,0.59s-0.42,0.05-0.67-0.02
		c-0.25-0.06-0.24-0.18-0.31-0.3c-0.14-0.23-0.41-0.2-0.41-0.2h-0.29l-0.1-1.12c0.13-0.09,0.21-0.18,0.22-0.42
		c0.01-0.25-0.13-0.34-0.26-0.44l-0.02-0.76h-0.49l-0.02,0.76c-0.13,0.09-0.22,0.25-0.22,0.44c0,0.31,0.12,0.3,0.18,0.39l-0.04,1.14
		h-3.14c0,0,0.04,0.55,0.26,0.66c0.25,0.13,0.66,0.08,0.66,0.18c0,0.08-0.46,0.08-0.72,0.21c-0.22,0.11-0.2,0.64-0.2,0.64h3.01
		l-0.05,1.67c-0.1,0.13-0.22,0.3-0.2,0.56c0.03,0.26,0.07,0.31,0.26,0.55c0.17,0.2,0.08,0.29,0.04,0.46
		c-0.01,0.03-0.01,0.04-0.03,0.06c-0.2,0.07-0.32,0.23-0.32,0.37c0,0.08,0.05,0.16,0.13,0.22c0,0.02,0.01,0.04,0.01,0.07
		c0,0.1-0.05,0.18-0.12,0.24c-0.3,0.13-0.48,0.32-0.48,0.54c0,0.02,0,0.05,0,0.07c-0.02,0.14-0.04,0.23-0.21,0.46
		c-0.01,0.01-0.01,0.02-0.02,0.03c0,0-0.03,0.09-0.03,0.11c0,0.11,0.09,0.21,0.25,0.3c0.06,0.05,0.13,0.09,0.2,0.13
		c0.25,0.14,0.21,0.18,0.02,0.32c-0.19,0.14-0.21,0.07-0.29,0.33c-0.05,0.15-0.21,0.2-0.31,0.22h-0.29v1.04h-0.98h-0.06
		c-0.2,0-0.36,0.16-0.36,0.37c0,0.2,0.16,0.36,0.36,0.36h0.06v6.38h-0.58c-0.2,0-0.36,0.16-0.36,0.36c0,0.04,0.01,0.08,0.02,0.12
		c-1.26,0.45-2.6,1.33-3.65,2.16c2.9,3.5,4.23,6.29,4.76,11.69h0.4v1.89h0.44v4.5h2.44c0.31,0,0.56,0.25,0.56,0.56
		c0,0.29-0.22,0.51-0.49,0.54h0.27v2.49h-0.67v7.57h2.37V58.52h1.5v11.02h2.38V58.52h1.43v10.66c-2.82,2.37-6.06,4.35-9.53,5.74
		V63.25h0.67v-2.31h-0.23c0.24-0.03,0.43-0.23,0.43-0.47c0-0.27-0.21-0.48-0.48-0.48h-2.67v-7.16h-0.38v-1.87H52.4
		c-0.86-6.63-5.59-12.65-11.69-14.84c0.02-0.05,0.03-0.1,0.03-0.16c0-0.27-0.22-0.48-0.49-0.48h-0.77l0-8.5h0.08
		c0.27,0,0.48-0.22,0.48-0.48c0-0.27-0.21-0.49-0.48-0.49H39.5h-1.3v-1.38h-0.4c-0.13-0.03-0.34-0.1-0.4-0.3
		c-0.11-0.33-0.14-0.25-0.39-0.43c-0.24-0.18-0.3-0.23,0.01-0.41c0.46-0.27,0.62-0.37,0.62-0.59c0-0.09-0.08-0.22-0.22-0.39
		c-0.13-0.19-0.12-0.43-0.13-0.5c-0.04-0.47-0.56-0.62-0.7-0.75c-0.07-0.08-0.11-0.16-0.11-0.26c0-0.03,0-0.06,0.01-0.08
		c0.12-0.09,0.19-0.19,0.19-0.31c0-0.19-0.23-0.5-0.51-0.58c-0.01-0.02-0.02-0.05-0.03-0.08c-0.02-0.19,0.03-0.27,0.18-0.42
		c0.16-0.22,0.25-0.21,0.27-0.73c0.02-0.43-0.17-0.6-0.34-0.75l-0.1-2.41h0.26c0,0,0.35,0.06,0.54-0.25
		c0.09-0.15,0.08-0.33,0.42-0.41c0.33-0.08,0.78-0.02,0.78-0.02s0,0.64,0.03,0.8c0.03,0.16,0.25-0.06,0.43-0.18
		c0.19-0.13,1.19-0.97,1.19-0.97s-1-0.88-1.19-1.02c-0.18-0.13-0.4-0.33-0.43-0.18c-0.03,0.16-0.03,0.78-0.03,0.78
		s-0.45,0.06-0.78-0.02c-0.33-0.08-0.33-0.25-0.42-0.4c-0.19-0.31-0.54-0.25-0.54-0.25h-0.37l-0.04-1.07
		c0.2-0.15,0.34-0.27,0.34-0.59c0-0.4-0.23-0.52-0.4-0.61l-0.03-0.79h-0.53l-0.02,0.76c-0.25,0.15-0.39,0.32-0.4,0.64
		c-0.01,0.23,0.17,0.5,0.37,0.59l-0.05,1.07h-3.96c0,0-0.02,0.67,0.27,0.82c0.29,0.15,1.11,0.14,1.11,0.28
		c0,0.11-0.77,0.06-1.06,0.21c-0.3,0.14-0.33,0.82-0.33,0.82h3.85l-0.1,2.41c-0.26,0.19-0.34,0.4-0.35,0.79
		c-0.01,0.29,0.05,0.45,0.28,0.68c0.1,0.12,0.3,0.25,0.25,0.47c-0.01,0.04-0.02,0.06-0.03,0.09c-0.27,0.09-0.54,0.35-0.54,0.54
		c0,0.11,0.06,0.21,0.17,0.29c0.01,0.03,0.01,0.06,0.01,0.1c0,0.13-0.07,0.23-0.16,0.32c-0.39,0.16-0.64,0.42-0.64,0.71
		c0,0.03,0,0.07,0.01,0.1c-0.03,0.18-0.05,0.31-0.28,0.6c-0.01,0.02-0.02,0.05-0.02,0.05c-0.01,0.02-0.02,0.04-0.02,0.06
		c-0.01,0.03-0.01,0.06-0.01,0.08c0,0.14,0.12,0.28,0.33,0.39c0.08,0.06,0.17,0.12,0.26,0.17c0.34,0.19,0.28,0.23,0.03,0.42
		c-0.25,0.19-0.28,0.1-0.39,0.43c-0.06,0.2-0.27,0.27-0.4,0.3h-0.36V26h-1.32h-0.09c-0.27,0-0.48,0.22-0.48,0.49
		c0,0.27,0.21,0.48,0.48,0.48h0.09l0,8.5h-0.77c-0.27,0-0.49,0.22-0.49,0.48c0,0.06,0.02,0.11,0.04,0.16
		c-6.1,2.18-10.46,8.21-11.31,14.84h-0.38v1.87h-0.38v7.16h-2.64c-0.27,0-0.49,0.22-0.49,0.48c0,0.25,0.19,0.44,0.43,0.47h-0.22
		v2.31h0.66v2.28c-5.4-6.14-8.68-14.19-8.68-23.01c0-19.27,15.62-34.88,34.88-34.88c19.27,0,34.88,15.62,34.88,34.88
		C77.4,49.67,75.25,56.31,71.56,61.84z M61.17,50.58v4.16h-1.42v-4.16H61.17z M57.79,50.58v4.16h-1.42v-4.16H57.79z"/>
	<g>
		<g>
			<path class="st0" d="M115.95,38.01c-1.13-1.93-1.59-2.72-2.72-4.77c-2.89-5.23-3.76-6.65-4.81-7.11
				c-0.29-0.13-0.55-0.21-0.92-0.25v12.13h-5.73V8.94h10.84c5.14,0,8.53,3.43,8.53,8.53c0,4.35-2.89,7.95-6.48,8.04
				c0.59,0.45,0.83,0.7,1.22,1.21c1.67,2.09,6.98,11.29,6.98,11.29H115.95z M112.9,14.04c-0.67-0.25-1.88-0.42-3.3-0.42h-2.09v7.86
				h1.97c2.51,0,3.6-0.25,4.39-0.96c0.71-0.66,1.13-1.71,1.13-2.93C114.99,15.79,114.28,14.54,112.9,14.04z"/>
			<path class="st0" d="M148.78,37.13c-1.75,0.96-3.39,1.34-5.81,1.34c-4.39,0-7.24-1.22-9.46-4.1c-2.21-2.85-3.34-6.53-3.34-10.79
				c0-6.27,2.38-11.29,6.56-13.6c1.73-0.92,3.85-1.42,6.03-1.42c7.74,0,12.51,5.65,12.51,14.76
				C155.27,29.89,153.01,34.83,148.78,37.13z M147.78,16.76c-0.47-1.46-2.01-3.68-5.11-3.68c-1.96,0-3.68,1-4.52,2.55
				c-1,1.89-1.47,4.44-1.47,7.95c0,5.02,0.84,8.16,2.6,9.41c0.92,0.67,2.09,1,3.47,1c4.06,0,5.78-3.09,5.78-10.5
				C148.53,20.52,148.28,18.39,147.78,16.76z"/>
			<path class="st0" d="M175.43,26.04v11.97h-6.11V26.04l-9.04-17.1h7.02l3.73,7.95c0.75,1.59,1.13,2.63,1.47,3.72
				c0.33-0.84,0.92-2.26,1.55-3.64l3.77-8.03h6.89L175.43,26.04z"/>
			<path class="st0" d="M206.03,38.01l-2.04-6.9h-8.53l-2.06,6.9h-6.1l9.53-29.16h6.32l9.16,29.16H206.03z M200.97,20.4
				c-0.29-1.34-1.17-5.14-1.17-5.14s-0.84,3.43-1.38,5.6c-0.54,2.1-0.91,3.48-1.54,5.4h5.69C202.57,26.25,201.6,23.2,200.97,20.4z"
				/>
			<path class="st0" d="M235.48,38.01h-15.35V8.94h5.98v24.22h10.42L235.48,38.01z"/>
		</g>
		<path class="st0" d="M107.54,58.49l-2.05-4.56c-0.67-1.5-1.39-3.18-1.62-3.92c0.09,0.98,0.11,2.39,0.12,3.38l0.07,5.11h-2.32
			V46.54h2.66l2.29,4.78c0.6,1.27,1.06,2.51,1.31,3.38c-0.09-0.93-0.17-2.46-0.19-3.28l-0.05-4.89h2.28v11.94H107.54z"/>
		<path class="st0" d="M120.6,58.49l-0.84-2.83h-3.5l-0.85,2.83h-2.5l3.91-11.97h2.59l3.76,11.97H120.6z M118.52,51.25
			c-0.12-0.55-0.48-2.11-0.48-2.11s-0.34,1.41-0.57,2.3c-0.23,0.86-0.38,1.43-0.64,2.22h2.34
			C119.18,53.66,118.79,52.41,118.52,51.25z"/>
		<path class="st0" d="M130.23,58.58h-2.19l-4.05-12.03h2.63l1.98,6.22c0.17,0.53,0.35,1.2,0.55,2.08c0.16-0.74,0.46-1.74,0.69-2.39
			l2.03-5.92h2.52L130.23,58.58z"/>
		<path class="st0" d="M142.88,58.49l-0.84-2.83h-3.51l-0.84,2.83h-2.51l3.91-11.97h2.6l3.77,11.97H142.88z M140.8,51.25
			c-0.11-0.55-0.48-2.11-0.48-2.11s-0.34,1.41-0.57,2.3c-0.22,0.86-0.38,1.43-0.64,2.22h2.34C141.46,53.66,141.07,52.41,140.8,51.25
			z"/>
		<path class="st0" d="M154.63,58.49h-6.3V46.54h2.46v9.95h4.28L154.63,58.49z"/>
		<path class="st0" d="M168.05,58.7c-1.65,0-2.92-0.54-3.9-1.65c-0.96-1.08-1.45-2.52-1.45-4.28c0-1.5,0.26-2.68,0.81-3.71
			c0.92-1.73,2.65-2.77,4.56-2.77c1.19,0,2.38,0.38,3.03,0.94l-1.08,1.63c-0.6-0.45-1.24-0.67-1.91-0.67c-0.81,0-1.6,0.39-2.02,1.03
			c-0.47,0.69-0.68,1.68-0.68,3.08c0,1.63,0.14,2.54,0.5,3.2c0.48,0.87,1.27,1.33,2.3,1.33c0.71,0,1.34-0.2,2.04-0.77l1.11,1.51
			C170.42,58.35,169.41,58.7,168.05,58.7z"/>
		<path class="st0" d="M181.16,58.13c-0.72,0.4-1.39,0.55-2.39,0.55c-1.8,0-2.97-0.5-3.88-1.69c-0.91-1.17-1.38-2.68-1.38-4.43
			c0-2.58,0.98-4.64,2.7-5.59c0.71-0.38,1.58-0.58,2.47-0.58c3.18,0,5.14,2.32,5.14,6.06C183.82,55.15,182.9,57.18,181.16,58.13z
			 M180.74,49.76c-0.19-0.6-0.82-1.51-2.09-1.51c-0.81,0-1.51,0.41-1.85,1.04c-0.42,0.77-0.6,1.82-0.6,3.27
			c0,2.06,0.35,3.35,1.06,3.87c0.38,0.27,0.87,0.41,1.43,0.41c1.67,0,2.38-1.27,2.38-4.31C181.06,51.3,180.96,50.43,180.74,49.76z"
			/>
		<path class="st0" d="M193.6,58.49h-6.29V46.54h2.46v9.95h4.27L193.6,58.49z"/>
		<path class="st0" d="M203.44,58.49h-6.31V46.54h2.46v9.95h4.28L203.44,58.49z"/>
		<path class="st0" d="M206.95,58.49V46.54h6.8l-0.31,1.96h-4.1v2.76h3.43v1.96h-3.38v3.2h4.51v2.06H206.95z"/>
		<path class="st0" d="M221.53,58.63c-1.79,0-3.11-0.59-4.07-1.83c-0.88-1.12-1.28-2.39-1.28-4.17c0-2.53,0.83-4.31,2.5-5.43
			c0.88-0.59,1.76-0.84,2.9-0.84c1.44,0,2.75,0.46,3.79,1.37l-1.27,1.5c-0.77-0.63-1.58-0.93-2.49-0.93c-0.7,0-1.3,0.21-1.71,0.6
			c-0.81,0.78-1.02,2.07-1.02,3.85c0,1.7,0.3,2.8,0.89,3.4c0.45,0.43,1.1,0.67,1.87,0.67c0.54,0,0.97-0.09,1.36-0.29v-2.72h-1.82
			l-0.31-1.96h4.62v5.71C224.28,58.28,222.94,58.63,221.53,58.63z"/>
		<path class="st0" d="M229.56,58.49V46.54h6.8l-0.31,1.96h-4.09v2.76h3.42v1.96H232v3.2h4.52v2.06H229.56z"/>
		<path class="st0" d="M105.79,77.12c-1.48,0-2.65-0.5-3.5-1.49c-0.88-1.03-1.29-2.33-1.29-4.15c0-2.21,0.65-3.74,1.91-4.78
			c0.8-0.66,1.69-0.95,2.78-0.95c1.2,0,2.26,0.35,3.13,1.11l-0.74,0.97c-0.82-0.6-1.51-0.84-2.36-0.84c-1.06,0-1.9,0.42-2.38,1.41
			c-0.52,1.06-0.61,1.85-0.61,3.16c0,1.53,0.27,2.67,0.78,3.35c0.48,0.62,1.43,0.99,2.38,0.99c0.63,0,1.18-0.16,1.64-0.41v-3.14
			h-2.04l-0.26-1.27h3.82v5.16C108.17,76.8,106.96,77.12,105.79,77.12z"/>
		<path class="st0" d="M124.15,76.96c-0.33-0.63-0.47-0.88-0.92-1.64c-0.85-1.41-1.13-1.88-1.91-2.76c-0.29-0.32-0.53-0.48-0.99-0.5
			v4.9h-1.55V65.9h3.1c1.32,0,2.08,0.3,2.61,0.8c0.5,0.47,0.98,1.2,0.98,2.28c0,1.72-1.12,3.1-2.96,3.03
			c0.52,0.42,0.78,0.78,0.96,1.03c0.23,0.3,0.57,0.79,0.93,1.37c0.48,0.75,1.38,2.2,1.61,2.55H124.15z M122.83,67.37
			c-0.32-0.13-0.77-0.2-1.35-0.2h-1.16v3.86h1.08c0.98,0,1.52-0.16,1.91-0.53c0.33-0.32,0.55-0.85,0.55-1.49
			C123.86,68.23,123.44,67.61,122.83,67.37z"/>
		<path class="st0" d="M134.78,76.96V65.9h6.02l-0.21,1.27h-4.26v3.37h3.57v1.3h-3.55v3.79h4.63v1.33H134.78z"/>
		<path class="st0" d="M149.88,76.96V65.9h6.03l-0.21,1.27h-4.26v3.37H155v1.3h-3.54v3.79h4.63v1.33H149.88z"/>
		<path class="st0" d="M170.71,76.96l-2.91-5.88c-0.56-1.13-1.14-2.39-1.35-3.03l-0.1,0.02c0.08,0.95,0.12,2.05,0.13,3.08l0.06,5.82
			H165V65.9h1.8l3.08,6.1c0.47,0.91,1.01,2.34,1.1,2.65l0.09-0.04c-0.03-0.32-0.16-2.07-0.16-3.29l-0.04-5.42h1.5v11.06H170.71z"/>
		<path class="st0" d="M191.01,77h-1.89l-1.23-5.57c-0.29-1.36-0.48-2.53-0.56-3.19h-0.09c-0.09,0.56-0.32,1.98-0.56,3.13L185.48,77
			h-1.91l-2.61-11.1h1.67l1.22,5.7c0.34,1.61,0.48,2.81,0.59,3.5h0.09c0.13-0.79,0.33-2.09,0.61-3.36l1.28-5.84h1.78l1.27,5.87
			c0.27,1.24,0.53,2.8,0.58,3.28h0.09c0.1-0.63,0.4-2.43,0.64-3.55l1.17-5.6h1.61L191.01,77z"/>
		<path class="st0" d="M202.17,76.96V65.9h1.57v11.06H202.17z"/>
		<path class="st0" d="M217.7,77.12c-1.44,0-2.6-0.59-3.43-1.66c-0.79-1.01-1.21-2.34-1.21-3.94c0-1.29,0.26-2.39,0.72-3.29
			c0.81-1.58,2.28-2.54,3.98-2.54c1.05,0,2.02,0.3,2.71,0.87l-0.74,1.02c-0.62-0.45-1.22-0.64-1.96-0.64c-1.1,0-1.95,0.56-2.46,1.58
			c-0.35,0.71-0.53,1.65-0.53,2.97c0,1.24,0.13,1.96,0.4,2.6c0.51,1.22,1.54,1.79,2.71,1.79c0.85,0,1.45-0.22,2.04-0.68l0.76,1.02
			C219.83,76.81,218.82,77.12,217.7,77.12z"/>
		<path class="st0" d="M234.97,76.96V71.7h-4.22v5.25h-1.52V65.9h1.52v4.54h4.22V65.9h1.56v11.06H234.97z"/>
		<g>
			<g>
				<path class="st0" d="M95.36,33.52c0,3.01-2.39,4.51-5.67,4.51c-3.61,0-5.62-1.75-5.62-4.43c0-3.22,2.68-4.49,5.72-4.49
					C93.15,29.12,95.36,30.75,95.36,33.52z M85.27,33.6c0,1.94,1.44,2.72,4.25,2.72c2.79,0,4.7-0.66,4.7-2.8
					c0-1.69-1.22-2.66-4.27-2.66C86.97,30.86,85.27,31.54,85.27,33.6z"/>
				<path class="st0" d="M95.19,19.86v5.45H84.26v-1.55h9.66V19.6L95.19,19.86z"/>
				<path class="st0" d="M93.71,10.1c0.95,0.76,1.48,1.78,1.48,3.68v2.72H84.26v-2.53c0-1.88,0.42-3.09,1.81-4.1
					c0.9-0.65,2.16-0.97,3.67-0.97C91.51,8.91,92.81,9.38,93.71,10.1z M86.45,11.42c-0.75,0.6-0.97,1.24-0.97,2.3v1.24h8.46v-1.21
					c0-1.25-0.34-2.06-1.23-2.55c-0.73-0.4-1.71-0.59-2.79-0.59C88.4,10.61,87.28,10.77,86.45,11.42z"/>
			</g>
		</g>
	</g>
</g>
</svg>
