<?xml version="1.0" encoding="utf-8"?>
<!-- Generator: Adobe Illustrator 17.1.0, SVG Export Plug-In . SVG Version: 6.00 Build 0)  -->
<!DOCTYPE svg PUBLIC "-//W3C//DTD SVG 1.1//EN" "http://www.w3.org/Graphics/SVG/1.1/DTD/svg11.dtd">
<svg version="1.1" id="Layer_1" xmlns="http://www.w3.org/2000/svg" xmlns:xlink="http://www.w3.org/1999/xlink" x="0px" y="0px"
	 viewBox="0 0 425.2 276.1" style="enable-background:new 0 0 425.2 276.1;" xml:space="preserve">
<g>
	<g>
		<path d="M208.2,210.6v1.3l0,0c1.8,0,2.5,0.3,2.5,1.4c0,0.6-0.2,1.8-0.4,2.7c0,0-2.7,10.3-3.1,11.6c-0.1-0.3-5.6-16.9-5.6-16.9h0
			h-3c0,0-5.3,16.6-5.4,16.9c-0.1-0.3-3.6-12.4-3.6-12.4c-0.2-0.6-0.3-1.4-0.3-1.8c0-0.6,0.3-1.4,2.7-1.4h0v-1.3H181v1.2l0,0
			c3.1,0.2,3.5,1,4.4,4c0,0,0,0,5.7,18.2l0,0h2.5c0,0,5.7-17.6,5.8-17.9c0.1,0.2,6.3,17.9,6.3,17.9h2.4l5.1-18.4
			c0.8-2.8,1.4-3.6,4.2-3.8l0,0v-1.2H208.2z"/>
		<path d="M154.4,226.4c-0.8,3.8-1.5,5.3-5.8,5.3h-3.3c-2.9,0-3.2-0.2-3.2-3v-23.3c0-3.7,1.6-3.9,4.3-3.9h0V200h0H133v1.4h0.1
			c2.6,0,4.3,0.3,4.3,3.9v23.3c0,3.7-1.6,3.9-4.3,3.9H133v1.4h22.6l0.4-7.7L154.4,226.4L154.4,226.4z"/>
		<path d="M173.3,223.2v2.7c0,2.9-2.5,6.2-5.8,6.2c-1.5,0-3.2-1.6-3.2-4.1C164.3,223.9,170.6,223.2,173.3,223.2 M180.9,232.6
			c0,0-0.7,0.2-1.2,0.2c-1.5,0-2-0.6-2-2.1v-12.1c0-5.5-2.7-8-8.8-8c-3.5,0-8.7,1.6-8.7,5c0,1.4,1.1,2.4,2.6,2.4
			c0.9,0,2.5-0.6,2.5-2.8c0-1.3,0.4-2.6,3.5-2.6c4.2,0,4.6,3.6,4.6,8.3v0.2c-4.5,0.3-13.9,0.8-13.9,7.6c0,3.3,2.7,5.7,6.2,5.7
			c3.3,0,6.1-1.2,7.7-3.4c0.1,2.3,1.4,3.4,3.9,3.4c2.1,0,3.6-0.5,3.6-0.5l0,0L180.9,232.6L180.9,232.6z"/>
		<path d="M324,212.7c3.9,0,4.4,3.8,4.4,5.5H319C319.1,216.3,320.7,212.7,324,212.7 M324.6,210.7c-6.8,0-10.1,3.7-10.1,11.3
			c0,8.2,4.1,12.5,12,12.5c3.8,0,5.9-0.9,6-0.9l0,0v-2l-0.1,0c0,0-1.6,0.7-3.5,0.7c-7.7,0-9.9-7.8-9.9-12h14.2V219
			C333.2,212.9,328.8,210.7,324.6,210.7"/>
		<path d="M243.6,215.8c-1-0.6-3.3-1.7-3.3-1.7c-3.5-1.7-6.8-3.4-6.8-6.6c0-3,2.1-5.3,5.5-5.3c6,0,7.7,4,8,5.8l0,0h1.6l-0.8-7.3l0,0
			c0,0-3.5-0.9-7.8-0.9c-4,0-7.1,1-9.1,2.9c-1.5,1.5-1.7,3.4-1.7,5.8c0,3.1,0.9,5.1,3.3,6.9c1.5,1.2,3.4,2.1,5.2,3.1
			c3.9,2,7.5,3.9,7.5,7.5c0,3.6-2.9,6.2-6.9,6.2c-5.2,0-7.5-3.1-7.8-5.8l0,0h-1.6l0.4,7.5h0c0.1,0,4.8,1,8.7,1
			c7.6,0,12.4-3.7,12.4-9.6C250.2,220.1,247.4,218,243.6,215.8"/>
		<path d="M264.1,232.5c-5,0-5.6-6.9-5.6-9.9c0-3,0.5-9.9,5.6-9.9c5,0,5.6,6.9,5.6,9.9C269.7,225.6,269.1,232.5,264.1,232.5
			 M264.1,210.6c-6.3,0-10.2,4.6-10.2,12c0,7.4,3.9,12,10.2,12c6.3,0,10.2-4.6,10.2-12C274.4,215.2,270.4,210.6,264.1,210.6"/>
		<path d="M288.3,212.6c2.2,0,2.9,1.1,3.1,1.9c0.4,1.6,0.8,3.3,2.8,3.3c1.4,0,2.4-1,2.4-2.5c0-3.5-4-4.8-7.7-4.8
			c-8.7,0-10.6,6.1-10.6,11.3c0,8.3,4.3,12.6,12.4,12.6c3.4,0,5.3-0.8,5.3-0.8l0,0l0-1.8l-0.1,0c0,0-1.5,0.4-2.8,0.4
			c-6.8,0-10.4-6.2-10.4-12C282.8,215.5,284.8,212.6,288.3,212.6"/>
		<path d="M307.9,229.4v-18.8l-0.1,0l-7.7,1.3v1.2l0,0c1.3,0.1,3.6,0.2,3.6,3v13.4c0,2.9-1.3,3.4-3.6,3.4h0v1.2h11.4v-1.2h0
			C309.3,232.8,307.9,232.2,307.9,229.4"/>
		<path d="M305.7,206.5c1.6,0,2.5-1.3,2.5-3c0-1.7-1.8-3-3.4-3c-1.6,0-2.5,1.3-2.5,3C302.3,205.2,304.1,206.5,305.7,206.5"/>
		<path d="M367.3,211.1v1.2h0c1.3,0,1.9,0.1,2.3,0.5c0.2,0.2,0.3,0.5,0.3,1c0,0.5-0.6,2.1-1.1,3.4c0,0-3.7,9.9-4.1,11
			c-0.1-0.2-7-17.1-7-17.1h-13.6v-7.3h0h-1.9v0c0,5-2,7.3-6.3,7.3h-0.1v2.2h3.9V227c0,5.6,0.4,7.5,7.8,7.5c1,0,2.4-0.2,2.5-0.2l0,0
			v-2.1l-0.1,0c0,0-1.2,0.2-2,0.3c-2.4,0.1-3.8-0.6-3.8-4.1v-15.1h6.7c2.7,0,3.6,1.1,5.1,4.5c0,0,6.7,16,6.7,16c0,0-1.2,3-1.2,3
			l-0.3,0.7c-1.3,3.4-5,4.8-9.7,3.6l-0.1,0v2.8l0.2,0c9.6,0.8,11.1-3,13.2-8.2c0,0,7.3-19.2,7.4-19.4c1-2.6,2-4,4.6-4h0v-1.2H367.3z
			"/>
		<path d="M112.2,212.7c3.9,0,4.4,3.8,4.4,5.5h-9.4C107.3,216.3,108.8,212.7,112.2,212.7 M119.2,213.1c-1.9-2-4.5-2.4-6.4-2.4
			c-6.8,0-10.1,3.7-10.1,11.3c0,8.2,4.1,12.5,12,12.5c3.8,0,6-0.9,6-0.9l0,0v-2l-0.1,0c0,0-1.6,0.7-3.5,0.7c-7.7,0-9.9-7.8-9.9-12
			h14.2l0,0c0-0.3,0-0.5,0-0.8C121.4,216.7,120.6,214.6,119.2,213.1"/>
		<path d="M96.7,229.4v-11.1c0-4.7-1-7.6-6.3-7.6c-4.5,0-7.3,3.8-8.3,5.9V200h0H48.3l-0.4,7h1.6l0,0c0.5-2.7,1.2-4.7,6-4.7h4.3v26.5
			c0,3.5-1.8,3.8-4.6,3.8h0v1.4h14.1v-1.4h0c-2.9,0-4.6-0.2-4.6-3.8v-26.5c0.1,0,9.8,0,9.8,0c1.3,0,3.5,0.4,3.5,3.1v24
			c0,2.9-1.3,3.4-3.7,3.4h0v1.2h11.6v-1.2h0c-2.4,0-3.7-0.6-3.7-3.4v-6c0-4.6,4.1-10,6.8-10c3,0,3.5,1.8,3.5,5.9v10
			c0,3.1-1.7,3.4-3.7,3.4h0v1.2h11.6v-1.2h0C98,232.8,96.7,232.2,96.7,229.4"/>
		<path d="M140,57.7c0,0,1.1,5.3,4.7,12.2c2.2,4.2,4.1,7.1,4.7,8c-3,3.4-3.8,5.7-4,6.2c-0.1,0.1-0.1,0.3,0,0.5
			c0.1,0.3,0.5,0.5,0.8,0.4c0.1,0,0.2-0.1,0.3-0.2c0.2-0.3,0.5-0.4,0.9-0.4c0.6,0,1.1,0.5,1.1,1.1c0,0.2-0.1,0.5-0.2,0.7
			c-1.8,3-2.2,4.8-2.3,5.3c-0.1,0.1-0.1,0.3,0,0.5c0.1,0.3,0.5,0.5,0.8,0.3c0,0,0.1,0,0.1-0.1c0.2-0.2,0.5-0.4,0.9-0.4
			c0.6,0,1,0.7,1,1.4c0,0.2-0.1,0.4-0.2,0.6c-1.2,2.3-1.4,3.4-1.5,3.8c-0.1,0.2-0.1,0.3,0,0.5c0.1,0.3,0.5,0.5,0.8,0.3
			c0.1,0,0.1-0.1,0.2-0.1c0.2-0.3,0.5-0.5,0.8-0.5c0.6,0,1.1,0.9,1.1,1.9c0,0.2,0,0.4-0.1,0.6c-0.6,2-0.6,3.2-0.6,3.5
			c0,0.2,0,0.3,0.1,0.5c0.2,0.3,0.6,0.4,0.9,0.2c0.1-0.1,0.1-0.2,0.2-0.2c0.2-0.3,0.4-0.6,0.7-0.6c0.2,0,0.4,0.1,0.6,0.4
			c0.1,0.2,0.2,0.4,0.2,0.6c2.6,7.2-7.5,12.9-15.5,6.6c5.4-1.1,7.8-2.7,8.3-3c0.1-0.1,0.3-0.2,0.3-0.4c0.1-0.3-0.1-0.7-0.4-0.8
			c-0.2-0.1-0.4,0-0.6,0.1c-2.5,1.2-6.1,1.9-9.6,2.3c-1.4-1.6-2.7-3.7-3.8-6.3c6.7,0.7,10.1-0.4,10.6-0.6c0.2,0,0.3-0.1,0.4-0.3
			c0.2-0.3,0.1-0.7-0.2-0.9c-0.2-0.1-0.4-0.1-0.6-0.1c-3.1,0.6-7.3,0.2-11.2-0.5c-0.7-2-1.2-4.4-1.6-7c-0.1-0.5-0.1-0.9-0.2-1.4
			c7.1,4,11.3,4.2,11.9,4.2c0.2,0,0.3,0,0.5-0.1c0.3-0.2,0.4-0.6,0.2-0.9c-0.1-0.2-0.3-0.3-0.5-0.3c-3.7-0.7-8.4-3.3-12.3-5.7
			c-0.2-3.4-0.1-7,0.4-10.6c6.1,8.7,10.9,10.8,11.6,11.1c0.1,0.1,0.3,0.1,0.5,0.1c0.4-0.1,0.6-0.4,0.5-0.8c-0.1-0.2-0.2-0.4-0.4-0.5
			c-4.2-2.7-8.8-9-11.6-13.3c0.8-3.4,2-6.7,3.8-9.7c4.3,11.7,9,15.3,9.7,15.8c0.1,0.1,0.3,0.2,0.5,0.2c0.4,0,0.7-0.3,0.7-0.7
			c0-0.2-0.1-0.4-0.3-0.5c-4-4.1-7.3-12.7-8.9-17.3C136,61.1,137.8,59.3,140,57.7"/>
		<path d="M153.8,179.6c6.3-4.2,23.5-13.4,47.2-15.8c6.7,3.4,11.6,6,11.6,6c3.9-2.1,7.8-4.1,11.7-6.1c24.1,2.3,41.7,11.7,48,15.9
			H153.8z"/>
		<path d="M229.6,50.7v1.8h-5.3v-1.8c0.8,0.3,1.7,0.5,2.6,0.5C227.9,51.2,228.8,51,229.6,50.7"/>
		<path d="M227.6,29.9l0.3,20.4c-0.3,0-0.6,0.1-1,0.1c-0.3,0-0.7,0-1-0.1l0.3-20.4c0.1-0.7,0.5-1.3,0.7-1.3
			C227.1,28.6,227.6,29.2,227.6,29.9"/>
		<path d="M212.3,38.1c2,0,3-0.6,3-0.6s0,2.1,0.7,3c0,0-1.1,0.5-2.2,0.1c0,0-0.4,0.4-0.3,1.2c0,0,1.4,0.8,2.8,0.9c0,0-1.5,3.8-4,3.9
			c-2.5,0-4-3.9-4-3.9c1.4-0.1,2.8-0.9,2.8-0.9c0.1-0.8-0.3-1.2-0.3-1.2c-1.1,0.4-2.2-0.1-2.2-0.1c0.7-0.9,0.7-3,0.7-3
			S210.4,38.1,212.3,38.1"/>
		<path d="M209.4,36.1c0,0,0.6-2.4,2.1-2.4c0.7,0,0.4,0.2,0.9,0.2c0.5,0,0.2-0.2,0.9-0.2c1.4,0,2.1,2.4,2.1,2.4s-1.1-0.3-3-0.3
			C210.4,35.8,209.4,36.1,209.4,36.1"/>
		<path d="M217.1,76.2c0,0,1.5-2.8,1.9-6.8c0.3-3.4,0.7-10.8,2.5-12c0,0-0.6,3.5-0.3,6.8C221.6,68.2,220.2,74.5,217.1,76.2
			 M208,74.3c0,0-0.2-3.7-0.4-5.3c-0.3-3.1-0.2-10,1-11.6c0,0,1.8,0.4,4.3-0.7c2-0.9,3-1.7,4.4-2.4c0,0-1.3,1.1-2.1,4
			C214.6,60.4,210.5,72,208,74.3 M225.5,79.8c2.8,3.8-2.5,4.2-3.7,3.4c-1.7-1.1-2.4-3.1-4.4-4.3c0.8-0.6,2.7-1.1,3.9-1.1
			c0.8,0,1.3,0.1,1.3,0.1c1.8-1.9,1.1-14.3,0.9-16.1c-0.2-1.8,0-6.1,0-6.1s1.5-0.5,2.3,0.1c1.2,1-0.1,3.4,1.4,3.4c1.2,0,0.4-2,1-2.9
			c0.3-0.5,0.5-0.6,0.6-1c0.1-0.5-0.5-1.8-1.7-1.8c-3.6,0.7-5.9-0.9-7.1-2.3c-1.4-1.7-1.4-5.8-1.6-6.5c-0.2-0.7-0.2-1.4-1-1.1
			c-0.8,0.3-2,6.2-4.8,6.2c-2.8,0-4.1-4.5-4.3-5.4c-0.2-0.9-0.7-1.1-0.7-1.1s-0.7,0.2-1.5,0.9c-0.8,0.7-2.7,3.1-4.3,3.4
			c-2,0.4-5.8-1.3-6.4-1.6c-0.7-0.3-2.3-0.1-3,0.1c-0.5,0.4-0.2,1.4,0.4,1.8c0.6,0.4,0.9,1.1,1,1.6c0.1,0.3,0.1,0.3,0.2,0
			c0.2-0.4,0.5-1,1.2-1.1c1-0.1,1.8,0.7,2.9,1c1.4,0.3,3.5,1.4,5.5,0.3c1-0.6,3.4-1.6,3.4-1.6c0.1,1.1,0.6,1.7,0.8,2.4
			c0.2,0.7,0.2,1.5,0.2,1.5s-1.4,1.4-2.3,3.8c-1,2.8-1.9,18.6-2,20c-0.2,1.5-0.2,1.8-0.3,2.5c6.9-3.4,9.1,1.9,9.1,3.1
			c0,1.9-4.2,2.4-5.5,0.6c-5.1-7.2-8.8-4.1-9.7-2.8c3.8,1.8,1.7,4.8-0.7,4.2c-3.6-1-3-3.5-3-3.7c-1.6,0.8-2.1,5.8,2.9,5.8
			c15.6-2,28.6-0.5,34.4,0.3c0.4,0,3.3,0.8,3.9-2.4C235.2,80.5,230.1,77,225.5,79.8"/>
		<path d="M194.8,116.3c-0.1-0.2-0.2-0.3-0.3-0.3c-0.2,0-0.2,0.1-0.3,0.4l-0.3,1.2c-0.1,0.3-0.2,0.4-0.5,0.4l-0.3,0
			c-0.2,0-0.5-0.1-0.3-0.6l0.8-2.5c0.1-0.3,0.3-0.5,0.5-0.5l0.3,0c0.3,0,0.5,0.1,0.6,0.4l1.1,2.5c0.2,0.5-0.2,0.6-0.4,0.6
			c-0.5,0-0.6-0.1-0.7-0.6L194.8,116.3z"/>
		<path d="M195.9,114.6c0,0.5,0.4,1,0.9,0.9c0.4,0,0.8-0.5,0.7-1c0-0.5-0.4-1-0.9-0.9C196.2,113.6,195.8,114,195.9,114.6"/>
		<path d="M193.5,112.8c0,0.6,0.4,1,0.9,0.9c0.4,0,0.8-0.5,0.8-1c0-0.6-0.4-1-0.9-1C193.9,111.7,193.5,112.2,193.5,112.8"/>
		<path d="M191.4,114.8c0,0.5,0.4,1,0.8,0.9c0.5,0,0.8-0.5,0.8-1c0-0.5-0.4-1-0.9-1C191.7,113.8,191.4,114.2,191.4,114.8"/>
		<path d="M194.8,147.1c-0.1-0.2-0.2-0.4-0.3-0.4c-0.1,0-0.2,0.1-0.3,0.4l-0.3,1.2c-0.1,0.3-0.2,0.4-0.5,0.4l-0.3,0
			c-0.2,0-0.5-0.1-0.3-0.6l0.9-2.5c0.1-0.3,0.3-0.5,0.5-0.5l0.3,0c0.3,0,0.5,0.1,0.6,0.5l1,2.5c0.2,0.5-0.2,0.6-0.4,0.6
			c-0.5,0-0.6-0.1-0.7-0.6L194.8,147.1z"/>
		<path d="M195.9,145.4c0,0.5,0.4,1,0.8,1c0.4,0,0.8-0.5,0.8-1c0-0.5-0.4-1-0.8-1C196.2,144.4,195.9,144.8,195.9,145.4"/>
		<path d="M193.6,143.5c0,0.5,0.4,1,0.8,1c0.4,0,0.8-0.5,0.8-1c0-0.5-0.4-1-0.8-1C193.9,142.5,193.6,143,193.6,143.5"/>
		<path d="M191.4,145.5c0,0.5,0.4,1,0.8,1c0.4,0,0.8-0.5,0.8-1c0-0.6-0.4-1-0.8-1C191.8,144.5,191.4,145,191.4,145.5"/>
		<path d="M229.8,117.2c-0.2,0.5-0.3,0.6-0.7,0.6c-0.3,0-0.6-0.1-0.4-0.6l1.1-2.5c0.1-0.3,0.3-0.4,0.6-0.4l0.3,0
			c0.2,0,0.4,0.1,0.5,0.5l0.8,2.5c0.2,0.5-0.1,0.6-0.3,0.6l-0.3,0c-0.3,0-0.4-0.2-0.5-0.4l-0.3-1.2c-0.1-0.3-0.1-0.4-0.3-0.4
			c-0.1,0-0.2,0.1-0.3,0.3L229.8,117.2z"/>
		<path d="M229.1,114.6c0,0.5-0.4,1-0.8,0.9c-0.4,0-0.8-0.5-0.7-1c0-0.5,0.4-1,0.9-0.9C228.8,113.6,229.1,114,229.1,114.6"/>
		<path d="M231.4,112.8c0,0.6-0.4,1-0.9,0.9c-0.4,0-0.8-0.5-0.7-1c0-0.6,0.4-1,0.9-1C231.1,111.7,231.4,112.2,231.4,112.8"/>
		<path d="M233.5,114.8c0,0.5-0.4,1-0.8,0.9c-0.5,0-0.8-0.5-0.8-1c0-0.5,0.4-1,0.9-1C233.2,113.8,233.6,114.2,233.5,114.8"/>
		<path d="M229.8,148c-0.2,0.5-0.2,0.6-0.7,0.6c-0.3,0-0.6,0-0.4-0.6l1.1-2.5c0.1-0.3,0.3-0.5,0.6-0.5l0.3,0c0.2,0,0.4,0.1,0.5,0.5
			l0.8,2.5c0.2,0.5-0.1,0.6-0.3,0.6l-0.3,0c-0.3,0-0.4-0.2-0.5-0.4l-0.3-1.2c-0.1-0.3-0.1-0.4-0.3-0.4c-0.1,0-0.2,0.1-0.3,0.4
			L229.8,148z"/>
		<path d="M229,145.4c0,0.5-0.4,1-0.8,1c-0.4,0-0.8-0.5-0.8-1c0-0.5,0.4-1,0.8-1C228.7,144.4,229.1,144.8,229,145.4"/>
		<path d="M231.3,143.5c0,0.5-0.4,1-0.8,1c-0.4,0-0.8-0.5-0.8-1c0-0.5,0.4-1,0.8-1C231,142.5,231.4,143,231.3,143.5"/>
		<path d="M233.5,145.5c0,0.5-0.4,1-0.8,1c-0.4,0-0.8-0.5-0.8-1c0-0.6,0.4-1,0.8-1C233.2,144.5,233.5,145,233.5,145.5"/>
		<path d="M154,153.5c3.6,0.3,5.3,2,5.3,2c-1.3,0.4-2.7,1.6-2.7,1.6c4,0.3,5.9,2.6,5.9,2.6c-2.9-0.2-8.6,0.1-9.8,0.1
			C152.6,157.3,153.1,155.5,154,153.5"/>
		<path d="M186.4,59.9l2.9-4.8l2.9,4.8H186.4z M193.1,60l-3.9-6.5l-3.9,6.5c0,0.1,0,0.1,0,0.2c0,2.2,1.8,3.9,3.9,3.9
			c2.2,0,3.9-1.7,3.9-3.9C193.1,60.2,193.1,60.1,193.1,60"/>
		<path d="M195.5,59.9l2.9-4.8l2.9,4.8H195.5z M202.3,60l-3.9-6.5l-3.9,6.5c0,0.1,0,0.1,0,0.2c0,2.2,1.8,3.9,3.9,3.9
			s3.9-1.7,3.9-3.9C202.3,60.2,202.3,60.1,202.3,60"/>
		<path d="M193.8,53.2c-0.4,0-0.8-0.4-0.8-0.8c0-0.4,0.4-0.8,0.8-0.8c0.5,0,0.8,0.4,0.8,0.8C194.6,52.8,194.2,53.2,193.8,53.2
			 M200,51.5h-4.6c-0.3-0.6-0.9-1-1.6-1c-0.7,0-1.3,0.4-1.6,1h-4.7c-0.2,0-0.4,0.2-0.4,0.5v0.8c0,0.2,0.2,0.5,0.4,0.5h4.7
			c0.3,0.6,0.9,1,1.6,1c0.7,0,1.3-0.4,1.6-1h4.6c0.2,0,0.4-0.2,0.4-0.5v-0.8C200.4,51.7,200.3,51.5,200,51.5"/>
		<path d="M268.7,135.5c-4,1.7-6.1,4.2-6.4,8.2c-0.8,0-2.9,0.1-4.3,2c-1.5,2-1.1,5.3,1.2,7.4c0,0-5.2,5-7.7,8.9
			c-0.3,0.5-0.9,1.3-2.4,1.3h-10.2c0,0,0.9-1.9,1.9-4c1.8-3.5,3.7-2.3,4.9-1.9c2.1,0.7,5.9-1.9,7.1-5.5c0.8-2.4-3.9-6.1-3.3-12.8
			c0.5-5.8,5.8-9,11.3-7.5C263.9,132.5,266,133.5,268.7,135.5"/>
		<path d="M164.8,129c4.4-1,7.4,1.2,8.2,3.7c1.5,4.8-3.1,12.9-4.2,14.5c-1.2,1.6-1.1,3-0.9,3.7c0.5,1.5,7.8,5.8,9.6,6.8
			c4.5,3,4.6,5.6,4.6,5.6h-6.1c0,0-0.5-1.1-0.5-2.4c0-0.8-0.9-0.9-1.7-0.8c-1,0.2-1.1-0.1-1.1-0.1c-2.9-2.8-10.7-8.5-10.7-8.5
			s-0.2-1,0.8-2.6c1-1.6,1.8-1.8,1.6-3.9c-0.4-4-3.9-3.8-4.9-3.7c0.8-3.2,0.6-6.3-1.8-9.8C157.8,131.6,159.7,130.2,164.8,129"/>
		<path d="M274.9,107.5c0.8,0,1.4,0.6,1.4,1.4c0,0.8-0.6,1.5-1.4,1.5c-0.8,0-1.5-0.6-1.5-1.5C273.5,108.1,274.1,107.5,274.9,107.5
			 M272.2,98.9l-1.3-1.5c3.4-2.2,6.8-5.1,7.8-8.7l0-0.1c0.1-0.3,0.3-0.6,0.6-0.6c0.3,0,0.4,0.2,0.4,0.5c0,0,0.1,1.8-1.9,4.8
			C275.9,96.1,273.3,98.1,272.2,98.9 M271.2,106.2c-0.8,0-1.4-0.6-1.4-1.4c0-0.8,0.7-1.5,1.4-1.5c0.8,0,1.4,0.7,1.4,1.5
			C272.6,105.5,272,106.2,271.2,106.2 M267.5,102c-0.8,0-1.5-0.7-1.5-1.4c0-0.8,0.7-1.5,1.5-1.5c0.8,0,1.4,0.6,1.4,1.5
			C268.9,101.4,268.3,102,267.5,102 M283.6,85.2c0-0.1-0.1-0.7,0.4-0.7c0.4,0,0.5,0.3,0.5,0.3c0.6,1.2,0.5,6.6-1.3,9.9
			c-1.8,3.2-4.8,6-7.4,8.2l-1.5-1.7c1.6-1.3,5.6-4.1,7.7-8.1C283.5,90.3,283.7,85.8,283.6,85.2 M288.2,82.7c0-0.1-0.2-0.7,0.4-0.8
			c0.2,0,0.4,0.2,0.5,0.4c1.5,3,2.4,16.2-9.7,24.5l-1.5-1.6c1-0.7,6.4-4.3,8.9-10.3C289.7,88.3,288.4,83.3,288.2,82.7 M241.2,120.8
			c-2.3,0.5-4.5,0.5-5.8-0.6c-1.5-1.1-2.5-0.7-3.4-0.1c-1.2,0.7-1.9,1.8-2.3,2.8c-2.5-0.2-5-0.3-7.5-0.4v-16.9
			c6.4,0.5,13.3,1.6,19,3V120.8z M232.8,124.1c-1.2,0.5-2.6,1.9-2.9,2.3c-0.2-0.2-0.3-0.4-0.3-0.6c-0.1-0.3-0.1-0.6-0.1-0.9
			c0.3-0.4,1-0.9,2.4-1.3C233,123.4,232.8,124.1,232.8,124.1 M241.2,139.6v5.5c0,2.7-1.5,5-4,6.2c-5.4,2.6-10.7,5.2-15.1,7.5V138
			C228.9,138.3,235.3,138.8,241.2,139.6 M222,98.4c-0.4-0.5-0.9,0-0.9,0s-0.8-1.4-1.5-1.7c-0.6-0.3-1.5,0.4-1.5,0.4v-4.2
			c1-0.2,1.4,0,1.5,0.4c0,0.5-0.3,1-0.3,1.4c0,0.6,0.6,0.8,1.2,1.1c0.9,0.4,1.7,0.2,1.7,0.2c0.1-0.9,1-1.5,1.3-2.1
			c0.2-0.3,0-0.7-0.4-0.7c-1.2-0.1-1.7,1-1.7,1c-0.8-0.9-0.5-1.3-0.1-1.4c0.4,0,1.9,0,1.8-0.5c-0.2-0.7-1.5-0.1-2.1,0
			c-0.5,0.1-0.8-1-0.5-1.2c0.4-0.2,0.9,0.1,1.3,0.1c0.4,0,0.8-0.3,0.8-0.3c-0.1-0.5,0.3-0.6,0.6-0.7c0.6-0.1,2,0,2.4,0.1
			c0.5,0,0.7,0,1-0.1c0.3-0.1,0.3,0.1,0.2,0.5c-0.1,0.3-0.5,0.9-0.5,0.9c0.3,1.4-0.5,2.2-0.8,2.5c-0.1,0.1-0.2,0.2-0.2,0.4
			c-0.1,1,0.1,1.7,0.9,1.6c0.6-0.1,1.3-0.7,1.2-2c0-1.3,0-2.1,1.3-2.7c3.2-1.4,8.5,0.6,7.6,0.7c-2.6,0.2-3.7,1.5-4.6,2.7
			c-0.5,0.7-1.5,1.2-2.1,1.4c-0.1,0.1-0.1,0.1,0,0.1c0.4,0,1.1,0,1.9,0.3c0.7,0.2,1.7,0.9,2.1,1.1c1.5,0.7,2.4,0.4,2.6,0.1
			c0.9-1.3-2.3-2.9-0.4-4.3c0.4-0.3,1.3-0.3,1.8-0.2c0.1,0,0.1,0,0.2-0.1c0-0.1-0.1-0.4-0.1-0.5c0-0.1,0-0.1,0.1-0.1
			c1.1,0.4,2,1.4,2,1.5c0.1,0.1,0,0.1,0,0.1c-0.1,0-1.4,0.2-2.2,0.4c-0.1,0-0.2,0-0.1-0.1c0.1-0.1,0.1-0.3,0.1-0.4
			c0-0.1-0.1-0.1-0.1-0.1c-0.5-0.1-1.3,0.1-1.3,0.6c0,0.8,1.9,2.1,0.9,3.8c-0.7,1-1.9,1-3.5,0.4c-0.1,0.2-0.2,0.6,0,1.2
			c0.3,0.9,2.1,1.5,2.1,1.5s0.1,1.3,0.1,2c0,1.1,0.3,1.6,0.3,1.6l-1-0.1c-0.9-0.2-1.9-0.3-2.8-0.5c0.1-0.5,0.3-1,0.9-1.1
			c0.4-0.1,0.6,0.3,1.1,0.2c0.6-0.2,0.2-1.3,0.2-1.3s-0.7,0-1.9-0.5c-1.1-0.5-1.4-1.3-1.4-1.3s-0.4,0.3-0.4,0.8
			c0,0.5,0.6,0.8,0.6,0.8s-0.8,0.5-1,1.1c-0.2,0.4-0.2,0.9-0.1,1.1c-1.2-0.2-2.4-0.3-3.7-0.5c0.1-0.3,0.4-0.9,0.8-1.1
			c0.5-0.2,0.9,0.4,1.5,0.1c1.1-0.4,0.7-1,0.7-1c-1.1-0.1-2.1-0.6-2.1-1.3c0-0.6,1.6-1.7,1.6-1.7c-1.6-0.3-6.3,2.3-6.8,3.7
			c-0.1,0.3,0,0.6,0.2,0.9c-1.2-0.1-2.4-0.2-3.6-0.2c0-0.2,0.1-0.7,0.5-1c0.3-0.4,0.8-0.3,1.1-0.2c0.1,0,0.3,0,0.3,0
			C222.1,100.6,222.3,98.7,222,98.4 M218,146.9c0,0.5-0.4,0.9-0.9,0.9h-8.9c-0.5,0-0.9-0.4-0.9-0.9v-1.7c0-0.1,0-0.3,0.1-0.4
			c1.6,0.4,3.4,0.6,5.3,0.6c1.9,0,3.7-0.2,5.3-0.6c0.1,0.1,0.1,0.3,0.1,0.4V146.9z M212.6,159.7c-1.2,0-2.1-2.4-2.1-5.3
			c0-2.9,0.9-5.3,2.1-5.3c1.2,0,2.1,2.4,2.1,5.3C214.7,157.4,213.8,159.7,212.6,159.7 M199.1,93.4c1.6-0.1,3.5-0.9,5.1-0.4
			c1.3,0.4,1.2,2,0.4,2.5c-0.6,0.3-1.2,0.6-2.5,0.8c0,0.4,0.1,0.9,0.1,1.1c0.1,0.4,1.6,1.9,3,1.8c0,0,0.7,2.1,0.7,3.1
			c0,0-0.2,0.3-0.3,0.7c-1,0.1-1.9,0.1-2.9,0.2c0-0.4,0-1.1,0.6-1.4c0,0,0.5,0.3,0.7,0.1c0.3-0.2,0.2-1.4-0.2-1.9
			c0,0-0.4-0.1-0.8-0.1c-0.5,0-1.8-0.2-2.2-1c0,0-0.6,0.3-0.6,0.9c0.1,0.4,0.8,1.3,0.8,1.3s-0.9,0.9-1.1,2.3c-1,0.1-2,0.2-3,0.4
			c0-0.5,0.1-1.2,0.9-1.6c0,0,0.4,0.4,0.7,0.2c0.3-0.2,0.6-0.7,1.2-1.3c0,0-0.8-0.2-1.2-0.2c-1-0.1-1.4-1.4-1-2.3
			c0,0-2.5,1.6-3.5,2.7c-1.2,1.2-1.9,2.5-2.3,3.3c-1.2,0.2-2.4,0.4-3.5,0.7c-0.1-0.6-0.1-1.7,0.7-1.7c0.7-0.1,0.7,0.4,1.3,0.1
			c0.5-0.2,1.3-2.6,1.3-2.9c-0.1-0.6-0.2-1-1.6-0.3c0,0-1.7-2.3-3.8-2.7v-3c0,0,0.7-0.3,1.2,0.4c0.5,0.7,0.1,1.1,0.1,1.2
			c0.1,0.2,0.4,1.3,3.4,1.5c0,0,0.2-1,0.5-1.3c0.2-0.3-0.4-1.2-1.3-0.1c0,0-0.9-0.5-0.5-1.5c0,0,0.3,0.4,1.1,0.3
			c0.6-0.1,0.8-1.3-0.1-1.4c-1-0.1-1.1,0.5-1.1,0.5s-0.5-0.4-0.4-0.9c0.1-0.6,1.1-0.7,1.1-0.7s-0.2-0.4,0-0.7
			c0.2-0.2,2.3-0.9,3.3-0.5c0.9,0.3,1.3,1.2,1.2,2.6c0,0.7-0.1,2.9,2.6,2c1.4-0.5,1.9-0.7,4.6-0.7c3.1-0.4,2.4-1.3,2.1-1.4
			c-1.9-0.7-6.3,1.9-6.8-0.9c-0.2-1.3,1.2-2.2,2.4-2.3c0.5,0,7-0.4,7-0.4c-0.9,0.9-1.8,1.6-2.5,1.7c0,0-1.2,0.2-2.1-0.5l-2.3,0.1
			C198.1,91.6,197.5,93.5,199.1,93.4 M203,158.7c-4.4-2.3-9.8-4.9-15.1-7.5c-2.4-1.2-4-3.5-4-6.2v-5.5c5.9-0.8,12.3-1.3,19-1.6
			V158.7z M190.5,130.6c0.3-1,0.7-3.2,1.1-4.5c0.3,1.7,0.7,4.2-0.1,5.5c-0.4,0.7-1,0.8-1.7,0.7C190.1,131.7,190.4,131.1,190.5,130.6
			 M185.6,111.1c-0.3,0-0.6,0-0.9,0.1v-2.6c5.7-1.4,11.8-2.4,18.2-3v16.9c-3.8,0.2-7.5,0.4-11,0.7c-0.1-0.1-0.2-0.2-0.2-0.3
			c-2.2-2.6-3.3-8.1-3.6-9.1C187.8,112.7,187.4,111,185.6,111.1 M211.1,108.8c0-1.7,0.6-3.1,1.5-3.8c0.9,0.7,1.5,2.1,1.5,3.8
			l0.7,34.7h-4.4L211.1,108.8z M165.7,98c-0.8,0-1.5-0.7-1.5-1.5c0-0.8,0.6-1.5,1.5-1.5c0.8,0,1.4,0.6,1.4,1.5
			C167.1,97.4,166.5,98,165.7,98 M161.9,102.3c-0.8,0-1.4-0.7-1.4-1.5c0-0.8,0.7-1.5,1.4-1.5c0.8,0,1.5,0.6,1.5,1.5
			C163.3,101.6,162.7,102.3,161.9,102.3 M158.2,106.4c-0.8,0-1.4-0.7-1.4-1.5c0-0.8,0.6-1.4,1.4-1.4c0.8,0,1.4,0.6,1.4,1.4
			C159.6,105.8,159,106.4,158.2,106.4 M165.5,77.8c0.5-0.1,1,0,1.1,0.4c0.1,0.3,0,0.6-0.3,0.8c-0.1,0.3,0,0.6,0.1,0.8
			c0.1,0.1,0,0.2-0.1,0.1c-0.3-0.2-0.7-0.5-1.2-0.7c-0.8-0.3-1.5-0.4-1.5-0.4S164.5,77.9,165.5,77.8 M265.9,80
			c-1.7,0.7-2.8,1.4-2.8,1.4s-0.1-0.4,0.6-1c0.4-0.4,0.6-0.5,0.6-0.5s-0.2-0.1-0.5-0.5c-0.3-0.5,0-1,0-1s0.7,0.2,2,0.3
			c1.6,0.2,2.1,0.7,2.1,0.7S266.9,79.6,265.9,80 M296,132.1c-2.9-5.4-10.8-5.9-14.8-9.6c-2.4-2.2-1.6-4.5-0.2-5.3
			c0.6-0.4,1.4-0.3,2.1-0.1c-0.2,4.6,8.5,6.2,9.6,4c-1.8-0.5-2.4-1.2-2.5-1.5c0,0,2.4,0.3,3.4-0.9c0,0-2.1-0.2-3.7-2.7
			c-0.9-1.4-2.5-2.7-4.3-2.4c-1,0.2-1.6,0.7-2.1,1.3l-0.1,0c-5.4-1.4-8.6,5.2-3.9,9.5c3.5,3.2,11.7,5.1,13.4,8.5
			c3.2,6.1-3.3,12.8-9.9,4.6c0,0-2.7-3.4-6-8.5c-5.3-8.1-3.4-13-1-15.9c2.4-2.9,14.6-6.7,16.5-23.5c1.1-9.7-5.5-16.2-9.9-18
			c-8.4-3.5-13.5-0.9-15.5,1c-2.1,1.9-0.7,3.1-0.7,3.1s-4.7,1.2-6.1,2.3c-0.7,0.6,0.1,1.9,0.1,1.9c-3.5,1.2-5.1,2.4-5.1,2.4
			c-0.1,1,1,1.5,1,1.5c-0.5,3,2,4,2,4l0.1,0c0.5-0.8,1.5-1.6,2.8-2c2.1-0.7,4.2-0.3,4.6,1c0.4,1.3-0.9,2.9-3,3.7
			c-1.5,0.5-3.1,0.4-4-0.2c-1.1,3.2,1.9,5.5,1.9,5.5s0.6-1.1,2.4-1.7c1.4-0.4,2.9,0.3,4.3-0.2c3.7-1.6,5.8-4.3,6.8-6.4
			c1.1-2.3-0.7-6.6-0.7-6.6c3.2-0.5,4.2-2.3,4.2-2.3c0.1,2.7-2.4,3.3-2.4,3.3c2,5,0.6,9.4-7.9,14.2c-3.6,2-7.6,1.9-10.9,5.3
			c-4.9,5-4.6,11-5,13c-1.1,2.1-4.1,4.2-7.3,5.5v-18.3c0.4,0.5,1.1,1.8,2.3,4.7c1.1,2.9,1.3,5.6,1.3,5.6c0.7-0.2,1.7,0,2.2,0.1
			c0.7-4.5,1.6-7.7,3.3-10c-1-0.6-3.2-2.2-5-4.3c-1.4-1.7-4.1-6.2-4.1-6.2c-8.8-2.7-19.8-4.4-31.7-4.4c-11.9,0-22.9,1.6-31.7,4.4
			l-0.1,0.4c-1.2,4.2-3.8,6.7-4.4,7.7c1.5,2.5,2.1,5.2,2.4,7.3c0.6-0.8,1.4-1.8,2.1-2.7v7.7c-0.8,0.2-1.5,0.3-1.9,0.3
			c-1.1,0.2-2.4-0.3-2-2c0.3-1.7,0.3-9.7-6.5-14.2c-4.4-2.9-7-6.7-7-8.7c0,0,0.9,1.3,2.9,1.1c2.5-0.3,3.4-1.2,5.4-0.8
			c2,0.4,1.9,1.5,3.2,1.5c1.4,0,2.6-1.4,2.6-1.4s-0.1-0.8-1.2-0.9c-1.1-0.1-1.5,0.1-1.8-0.2c-0.5-0.5,0-1.1,1-0.9
			c1,0.2,1.3,0.5,2.6,0.3c0,0,1-1.7-1-3.7c-1.2-1.2-6.4-4.2-8-5.4c-2.6-1.8-4.6-2.7-7.5-2.7c0,0-1.3-1.5-3.6-2.5
			c-2.2-0.9-3.1-1-3.1-1s0.9,2.7,2,4.6c0,0-7.1,4.4-6.6,13.8c0.5,10.1,4.9,13.4,4.7,16.8c-0.6,9-10.8,14.6-13.1,18.2
			c-2.3,3.6-4.8,9.1,2.2,17.3c5.6,6.4,4,12.8,2,15.2c0,0,0.2-2-0.2-4.4c-10.2-1.2-16.2-11.1-7.3-19.7c-13.7,2.9-14.6,26.4,8.2,27.5
			c0,0,1,2.2,0.9,6c0,1.7-0.2,3.9,0.1,4.3c0.3,0.4,1.2,0.5,1.1,1.3c-0.2,0.7,0.2,3.3,0.2,3.3h6.9c0,0-0.3-1.2-1-2.5
			c-0.8-1.6-2.1-2.4-2.7-3.8c-1.2-2.7-2-8.7-1-12.7c1.8-6.7,5.6-10.5,6.4-14.4c0.6-2.7,0.2-7.4-2.7-10.1c0,0,2.4-2,5.3-2.9
			c5.3-1.6,7-2.7,8.8-4.2c1.9-1.5,2.5-3.6,2.5-3.6s-1.5-2.1-1.5-4.1c0-0.1,0.1-0.1,0.1-0.1c3.4,4.7,5.7,3.8,13.4-0.4
			c0.5-0.3,1.3-0.1,1.5,0.4c0.2,0.5,1.4,3,1.3,5.7c0,0.8,0,1.9,0.4,2c0.7,0.2,1.2,0.5,0.8,1.3c-0.2,0.6-0.6,1-0.9,1.4
			c-0.5,0.7,0.1,2.5,0.8,4c-1-0.9-1.9-2.1-2.2-2.8c-0.3-0.8,0.4-1.8,0.5-2.3c0.1-0.4-0.1-0.7-0.9-0.9c-0.8-0.2-0.2-3.6-0.2-4.7
			c-0.1-1.1-0.1-1.8-1-2c-1.1-0.2-2.1,1-2.8,2.3v24.8c0,4,2.3,7.3,5.7,9c12.9,6.2,26,13.1,26,13.1c0.5-0.3,13-6.9,26-13.1
			c3.4-1.6,5.7-5,5.7-9v-17.5c-2.7-0.4-4.2,1.1-6.8,1.3c-2.1,0.2-5.4-0.4-6.8-1.8c-0.1-0.1-0.1-0.2,0.1-0.2c1.3,0.6,3.9,1.2,7.1,0.4
			c2.4-0.6,3.3-1.6,15.3-3.7c3.3-0.6,6.4-1,8-2.4c1-0.8,1.9-1.9,2.3-2.6c0.1-0.2,0.3-0.2,0.2,0.1c-0.2,0.7-0.5,1.9-1.3,3.2
			c-1.4,2.2-4.6,3.1-4.5,3.1c1.1,5.7,10.9,5.7,13.9,11.2c0,0-7.6,1.7-7.7,8.5c-0.1,7.7,7.1,11.4,8.6,12.5c1.9,1.4,2.8,4.8,3.4,7.2
			c0.6,2.5-1.3,4.9-1.3,4.9c-2.9-0.8-4.3,0.3-4.7,1.2c-1.1,2.2-2,4.2-2,4.2h11.2c0.9,0,1.4-0.2,1.5-1.5c0.5-6.9-0.9-15.8-0.9-15.8
			c-6.1-6.1-2-12.6,0.7-15.6c0,0,0.3,0.2,1.4,1C291.4,150.6,300.2,140,296,132.1"/>
	</g>
</g>
</svg>
